<?xml version="1.0"?>
<svg xmlns:rdf="http://www.w3.org/1999/02/22-rdf-syntax-ns#" xmlns="http://www.w3.org/2000/svg" xmlns:cc="http://web.resource.org/cc/" xmlns:xlink="http://www.w3.org/1999/xlink" xmlns:dc="http://purl.org/dc/elements/1.1/" xmlns:svg="http://www.w3.org/2000/svg" id="Layer_1" xml:space="preserve" viewBox="0 0 258.195 330.402" version="1.1" x="0px" y="0px" enable-background="new 0 0 258.195 330.402">
<path d="m147.57 19.85c0.512 0.005 1.021 0.011 1.532 0.018-0.006 0.511-0.012 1.021-0.018 1.531-0.512-0.006-1.021-0.012-1.532-0.018 0.01-0.51 0.01-1.021 0.02-1.531z"/>
<path d="m151.28 29.841c0.543 2.363-2.115 1.449-1.572 3.809-2.171 0.608-1.971-1.1-3.818-0.809-0.61-4.008 2.75-4.406 5.39-3z"/>
<path d="m142 38.156c0.746 2.31-1.722 1.335-3.078 1.493 0.21-1.341 1.34-1.727 3.08-1.493z"/>
<path d="m148.12 38.988c-0.198 1.347-1.338 1.732-3.077 1.498-0.33-2.386 1.96-2.715 3.08-1.498z"/>
<path d="m150.4 39.781c0.768 0.009 1.532 0.017 2.299 0.025-0.01 0.767-0.018 1.532-0.025 2.295-0.766-0.009-1.531-0.018-2.298-0.025 0.01-0.764 0.02-1.53 0.02-2.295z"/>
<path d="m169.43 49.179c-0.373 2.677-3.31 1.529-3.85 2.254-2.35-1.453 2.71-4.173 3.85-2.254z"/>
<path d="m197.46 74.75c-0.108-1.661 2.72-0.315 3.835-0.72-0.774 1.013-2.084 1.478-2.329 3.034-1.11-0.186-0.25-2.287-1.51-2.314z"/>
<path d="m58.156 76.236c0.512 0.007 1.021 0.013 1.532 0.018-0.005 0.511-0.011 1.021-0.017 1.532-0.511-0.007-1.021-0.012-1.532-0.018 0.006-0.51 0.011-1.021 0.017-1.532z"/>
<path d="m96.287 88.149c-0.345 0.938-0.995 1.562-2.312 1.503 0.344-0.937 0.995-1.558 2.312-1.503z"/>
<path d="m59.515 91.56c0.507 0.006 1.019 0.013 1.529 0.019 0.201 1.235-0.737 1.309-0.792 2.286-0.507-0.007-1.019-0.013-1.529-0.019-0.201-1.238 0.737-1.308 0.792-2.286z"/>
<path d="m62.558 93.124c1.636-0.34 1.445 1.108 1.503 2.312-0.618-0.149-0.754-0.773-1.521-0.779 0.007-0.512 0.013-1.023 0.018-1.533z"/>
<path d="m106.9 97.452c-0.362 3.486-2.474 2.877-5.385 2.233 0.21-3.026 3.17-3.248 5.38-2.233z"/>
<path d="m191.81 100.71c-0.168 2.149-1.366 3.245-3.861 3.018 0.136-0.889-0.152-1.362-0.745-1.537 0.11-1.96 2.58-1.49 4.61-1.48z"/>
<path d="m171.07 107.36c0.764 0.01 1.528 0.019 2.296 0.026 0.125 2.194 0.047 4.177-2.339 3.801-1.42-1.48 0.47-1.38 0.04-3.83z"/>
<path d="m190.96 108.35c-1.021 1.327-4.639 3.978-4.589-0.052 1.79-0.22 3.17-1.46 4.59 0.05z"/>
<path d="m104.47 108.9c-1.03 1.082-3.423 1.985-4.598 0.715 0.668-1.46 3.378-2.04 4.598-0.72z"/>
<path d="m189.37 113.69c-0.296 2.699-2.03 1.954-3.845 1.488 0.13-1.68 1.95-1.62 3.85-1.49z"/>
<path d="m105.93 115.04c-0.166 1.138-5.042 3.017-4.593-0.052 1.79-0.21 3.18-1.46 4.59 0.05z"/>
<path d="m63.044 117.62c0.217 1.768-2.22 0.824-2.321 2.271-2.225-0.88 1.004-2.48 2.321-2.27z"/>
<path d="m171.7 119.61c-0.713 1.334-1.452 2.644-3.85 2.251 0.135-0.886-0.156-1.361-0.749-1.536 0.47-2.51 2.9-1.06 4.6-0.71z"/>
<path d="m164 123.35c-0.229 1.572-2.86 0.688-3.087 2.26-0.94-0.344-1.562-0.995-1.506-2.312 1.63-1.65 2.19 0.41 4.6 0.05z"/>
<path d="m171.63 125.73c-0.676 1.113-1.173 2.413-3.087 2.264-0.332-0.687-0.654-1.377-1.513-1.549 1.35-2.12 2.01-0.69 4.6-0.71z"/>
<path d="m229.02 126.38c-0.199 1.346-1.334 1.729-3.078 1.497-0.33-2.39 1.95-2.72 3.08-1.5z"/>
<path d="m164.7 129.48c0.506 2.656-2.716 2.712-3.845 1.489 0.13-1.67 1.94-1.62 3.84-1.49z"/>
<path d="m225.12 132.46c1.019 0.011 2.04 0.022 3.062 0.035 0.192 2.004-0.316 3.288-2.333 3.035 0.12-1.38-0.91-1.63-0.73-3.08z"/>
<path d="m65.872 138.32c1.356 0.576 0.096 1.394-0.026 2.295-1.354-0.59-0.094-1.4 0.026-2.3z"/>
<path d="m78.811 144.58c2.847 2.013 4.416 5.27 5.255 9.243-2.836-1.7-5.555-6.91-5.255-9.24z"/>
<path d="m152.2 151.54c1.639-0.341 1.443 1.107 1.505 2.312-0.617-0.149-0.754-0.773-1.522-0.78 0.01-0.51 0.02-1.02 0.02-1.53z"/>
<path d="m176.65 155.64c-0.939-0.344-1.562-0.996-1.506-2.312 1.64-0.34 1.45 1.11 1.51 2.31z"/>
<path d="m222.58 154.62c0.327 2.4-0.702 3.408-3.097 3.025-0.33-2.39 0.7-3.4 3.1-3.02z"/>
<path d="m184.96 164.92c1.003 0.281 1.188 1.359 2.276 1.558 0.219 1.766-2.22 0.824-2.319 2.27-1.344-0.199-1.729-1.337-1.494-3.078 0.88 0.13 1.35-0.16 1.53-0.75z"/>
<path d="m181 176.35c2.191-0.125 4.179-0.047 3.8 2.341-2.02-0.04-4.8 0.66-3.8-2.34z"/>
<path d="m180.89 186.3c1.604-0.306 2.021 0.549 3.052 0.801-0.197 1.343-1.337 1.729-3.076 1.497 0.02-0.77 0.02-1.54 0.03-2.3z"/>
<path d="m21.702 186.8c0.115-1.688 3.251-0.289 4.602-0.714-0.116 1.68-3.252 0.28-4.602 0.71z"/>
<path d="m57.642 189.5c2.073 0.338 3.116 3.676 1.468 5.373-3.044 0.202-4.124-1.518-3.771-4.633 1.082 0.08 2.165 0.15 2.303-0.74z"/>
<path d="m78.214 197.38c-1.124 1.114-5.021 1.07-6.121-0.069 0.766-3.06 5.724-4.19 6.121 0.07z"/>
<path d="m211.4 195.83c1.893 0.471 0.571 8.754-2.4 9.158 1.05-2.8 1.87-5.83 2.4-9.16z"/>
<path d="m184.6 197.05c-1.86 6.5-6.16-3.69 0 0z"/>
<path d="m23.122 196.76c-3.34 2.36-8.169-2.98 0 0z"/>
<path d="m216.69 201.24c1.653 2.498-1.173 7.029-1.645 9.931-0.14-4.02 0.61-7.12 1.65-9.93z"/>
<path d="m183.72 207c-0.012 1.021-0.023 2.039-0.034 3.061-1.019-0.012-2.04-0.022-3.061-0.035-0.33-2.4 0.7-3.41 3.09-3.02z"/>
<path d="m133.15 211.78c-0.712 1.594-2.282 2.308-4.614 2.243-1.9-3.56 2.43-4.56 4.61-2.24z"/>
<path d="m143.11 211.12c-0.136 0.89 0.152 1.365 0.748 1.54-0.507 0.772-1.768 0.771-1.559 2.276-2.017 0.208-2.497-1.087-2.26-3.086 1.38 0.12 1.63-0.91 3.07-0.73z"/>
<path d="m153.77 215.84c-2.225 0.924-3.496 0.35-3.802-2.338 1.49-1.47 4.69-0.75 3.8 2.34z"/>
<path d="m180.54 217.67c1.045 1.251 3.629 0.994 3.018 3.861-1.888 0.08-3.688 0.072-4.581-0.814-0.54-2.1 1.53-1.53 1.56-3.05z"/>
<path d="m159.71 231.98c0.522-2.151 0.868 1.772 0.738 2.304-0.37 1.54-1.44 0.6-0.74-2.3z"/>
<path d="m104.32 257.37c0.309-1.454 0.969 0.5 0.748 1.537-0.31 1.45-0.97-0.5-0.75-1.54z"/>
<path d="m206.84 260.83c1.354 0.575 0.093 1.393-0.025 2.295-1.37-0.58-0.11-1.39 0.02-2.29z"/>
<path d="m98.656 284.86c-0.711-3.508 3.854-4.185 5.391-3 0.26 3.05-3.41 4.64-5.394 3z"/>
<path d="m175.2 284.19c0.69 2.774-3.025 1.031-4.61 1.479 0.009-0.768 0.018-1.529 0.025-2.295 0.82-0.88 3.52-0.24 4.58 0.81z"/>
<path d="m56.431 296.62c0.344-0.938 0.996-1.559 2.312-1.502 0.34 1.64-1.109 1.45-2.312 1.5z"/>
<path d="m222.37 308.45c0.211 2.021-1.62 1.954-3.087 2.26-2.52-2.59 2-5.2 3.09-2.26z"/>
<path d="m31.841 305.53c1.925 0.207 3.144 2.295 1.485 3.846-3.022-0.31-3.376-2.34-1.485-3.85z"/>
<path d="m66.232 309.75c-1.374 0.081-1.604-0.956-3.052-0.802-0.204-4.6 6.122-2.74 3.052 0.8z"/>
<path d="m116.78 306.49c3.565 0.056 3.522 3.854-0.043 3.825-0.97-1.02-0.95-2.84 0.04-3.83z"/>
<path d="m164.99 307.04c-0.115 1.947-1.146 2.955-3.095 3.025-1.17-2.46-0.24-3.37 3.09-3.02z"/>
<path d="m182.58 307.23c2.171-0.605 1.971 1.104 3.817 0.812 0.2 1.99-5.2 2.6-3.82-0.81z"/>
<path d="m198.65 308.18c-0.956 1.088-2.646 1.422-4.606 1.48-0.23-3.29 2.81-2.04 4.61-1.48z"/>
<path d="m210.12 308.31c0.438 1.755-5.327 2.722-4.593-0.052 1.45-1.48 2.81-0.2 4.59 0.05z"/>
<path d="m44.067 307.2c0.321 2.396-1.663 2.429-3.853 2.252 0.009-0.767 0.018-1.528 0.026-2.295 1.017-0.97 2.832-0.95 3.827 0.04z"/>
<path d="m55.518 309.62c-1.34-0.454-4.506 0.874-4.581-0.817-0.174-3.03 5.863-3.2 4.581 0.82z"/>
<path d="m73.917 306.77c1.948 0.114 2.955 1.147 3.024 3.096-1.368-0.112-1.623 0.919-3.068 0.73-1.49-1.8-1.486-2.07 0.044-3.83z"/>
<path d="m86.163 306.91c-0.013 1.021-0.023 2.039-0.035 3.061-2.194 0.128-4.179 0.05-3.801-2.338 0.895-0.63 2.064-0.98 3.836-0.72z"/>
<path d="m107.56 309.45c-1.157 1.2-4.375 1.071-3.809-1.572 1.16-1.21 4.38-1.07 3.81 1.57z"/>
<path d="m131.29 308.95c-0.058 2.3-5.455 2.157-4.581-0.818 2.34-0.93 2.98-0.55 4.58 0.82z"/>
<path d="m21.11 306.94c1.777-0.223 2.936 0.155 3.818 0.812 0.213 1.764-2.221 0.824-2.324 2.269-1.343-0.2-1.728-1.34-1.494-3.08z"/>
<path d="m97.605 310.1c-2.088-0.092-1.556 1.259-3.061-0.034-0.571-2.95 3.698-2.91 3.061 0.03z"/>
<path d="m200.86 315.86c-1.71 2.32-4.89-0.94 0 0z"/>
<path d="m221.5 317.62c0.249-1.035 1.922-0.614 3.069-0.729-0.23 1.77-2.07 1.74-3.07 0.73z"/>
<path d="m32.492 315.49c0.51 0.007 1.021 0.012 1.53 0.018-0.008 0.766-0.017 1.532-0.025 2.298-0.767-0.009-1.532-0.018-2.295-0.025-0.203-1.24 0.738-1.32 0.79-2.29z"/>
<path d="m43.972 315.62c0.896 0.135 0.629 1.401 0.737 2.307-0.764-0.009-1.529-0.018-2.294-0.025-0.402-1.7 1.472-1.08 1.557-2.28z"/>
<path d="m50.859 315.7c0.764 0.01 1.529 0.019 2.295 0.026-0.009 0.766-0.018 1.532-0.025 2.298-0.767-0.009-1.532-0.018-2.295-0.025 0.008-0.77 0.016-1.54 0.025-2.3z"/>
<path d="m64.63 315.85c0.332 2.39-1.955 2.715-3.078 1.497 0.199-1.35 1.337-1.73 3.078-1.5z"/>
<path d="m76.102 316.75c0.568 2.953-3.698 2.904-3.061-0.034 1.534-1.26 0.971 0.07 3.061 0.03z"/>
<path d="m153.39 317.62c-0.199 1.344-1.335 1.729-3.078 1.498-0.75-2.32 1.72-1.34 3.08-1.5z"/>
<path d="m86.804 317.63c-0.344 0.937-0.995 1.562-2.312 1.503 0.344-0.93 0.999-1.55 2.312-1.5z"/>
<path d="m95.224 317.73c0.618 0.149 0.754 0.774 1.521 0.783-0.43 1.8-3.627 0.43-1.521-0.78z"/>
<path d="m19.388 323.76c0.511 0.006 1.021 0.012 1.532 0.018-0.147 0.649 0.291 0.724 0.757 0.771-0.005 0.511-0.011 1.021-0.017 1.532-0.649-0.148-0.727 0.291-0.774 0.757-0.511-0.006-1.021-0.012-1.532-0.019 0.15-0.647-0.288-0.726-0.754-0.773 0.006-0.51 0.012-1.021 0.019-1.531 0.646 0.14 0.72-0.29 0.769-0.76z"/>
<path d="m45.388 325.58c-0.34 1.699-4.067 0.556-4.589-0.054 0.57-2.74 3.602-1.03 4.589 0.05z"/>
<path d="m68.362 324.31c0.07 2.333-4.006 2.104-4.609 1.478 0.847-2.54 2.323-0.02 4.609-1.48z"/>
<path d="m76.778 324.41c1.277 0.015 2.554 0.027 3.827 0.043 0.251 2.62-4.461 3.18-3.827-0.04z"/>
<path d="m206.4 96.282c-0.267-4.534-4.476-5.215-6.028-8.489 0.245-1.592 2.058 1.16 2.313-1.503 0.377-1.63-1.076-1.47-2.28-1.559 0.508-3.753 5.022-3.596 6.975-7.571-4.13-2.144-7.058 3.601-8.494 6.789-2.432-1.404-1.551-6.051-4.515-6.937-2.278 1.086 0.976 2.994-0.062 5.355-1.628 1.295-0.536-6.505-2.981-6.922 0.666-1.898 1.049-4.09 0.844-6.879-7.18-9.187-1.037-26.732-5.689-38.329 13.255 1.803 8.042 15.347 10.43 25.372 1.498 6.311 7.574 8.661 7.484 14.628 2.188 1.143 5.306 1.373 6.079 3.896-3.754 2.623 0.396 6.507-0.91 13 0.447 2.334 4.101 1.541 4.547 3.875-0.012 1.021-0.022 2.042-0.034 3.061-11.765 3.709-15.264 15.865-22.469 24.238 3.507 0.016 13.076 1.6 19.122 0.979 11.389-1.167 19.671-6.411 29.947-8.846 0.464 3.964 0.552 3.858 0.671 8.429-0.298 1.298 0.578 1.447 1.512 1.546-4.553 21.715-8.822 41.659-15.951 57.217-2.866 0.423-3.356 3.278-5.407 4.532 8.295 19.605 1.691 35.034 3.165 58.199-0.388 2.396 2.039 2.045 2.256 3.851 0.906 10.467 6.521 16.325 6.573 27.626 2.578 3.786 5.123 7.607 6.748 12.321-4.831 0.687-5.14-3.051-6.826-5.434-2.39-2.53-6.395-3.884-8.339-6.982-4.738-7.559-0.787-26.018-2.646-36.767-0.164-0.938-1.52-1.651-1.512-1.547-0.041-0.73 1.441-0.604 1.546-1.514 0.246-2.188-1.329-3.297-1.468-5.373-0.228-3.354 1.531-7.982 1.658-11.463 0.128-3.576-1.02-6.572 0.104-9.183-0.225-1.04-1.907-0.656-3.052-0.797-0.172-5.155 0.749-10.906-1.395-12.264-3.046 1.238-1.596 2.036-0.813 4.583-1.775-1.885-1.724 0.835-3.078 1.495 0.279 3.64-1.177 5.508-1.627 8.401 0.199 1.368-0.74 1.562-0.774 0.758 0.711-4.834 2.894-11.816 1.713-16.054-2.292-0.798-1.376 1.688-1.564 3.044-1.38-0.922-0.558-3.999-1.469-5.376-1.632-0.377-1.471 1.076-1.56 2.28-2.943-1.469-6.235-3.646-8.415-0.095-1.576-0.228-0.146-3.395-2.26-3.087-4.364 3.407-1.653 10.689-1.723 16.814-0.103 9.22 11.893 9.054 19.817 7.112 2.414 0.404 0.326-3.793 3.096-3.026-0.715 2.233-0.716 2.344-0.053 4.594-1.413-2.526-4.035 0.521-6.896 0.685-5.744 0.331-12.676-2.363-16.819-1.72 2.977 6.02 18.134 6.123 22.94 1.789 2.188 8.165-3.471 14.11-4.85 22.903-0.238 1.519 0.808 2.983 0.71 4.603-0.282 4.948-3.864 9.76-3.225 14.504 0.207 1.521 1.696 3.646 2.229 6.147 0.443 2.085 0.109 4.671 0.693 6.129 1.094 2.71 4.842 4.485 5.272 7.715 0.913 6.833-8.103 13.937-1.758 19.879-0.3 2.271-1.262 3.868-2.354 5.329 3.346 1.269 8.118 1.145 12.226 1.67 0.889 1.387-0.951 6.016 0.671 8.426 4.235-0.312 10.25 1.195 12.261-1.395-0.521-2.265-0.821-4.745-2.227-6.147-3.184 0.708-3.355 2.781-3.879 4.55-1.021-0.012-2.038-0.022-3.06-0.035-0.973-1.909 1.748-3.694 0.043-3.825 2.462-2.955 10.798-3.137 12.232 0.903 0.544 2.622-3.117 0.938-2.338 3.801 0.066 2.99 6.416 3.778 7.616 3.147 0.405 2.661 1.991 9.273 9.099 7.754-0.487 3.824-0.954 4.081-0.095 8.419-71.076-1.336-148.54 3.251-214.28-0.893 0.34-1.716 4.061 0.022 4.606-1.479 0.482-2.741-0.846-3.712-1.468-5.375-1.916 0.622-4.112 0.955-6.896 0.688-2.574-0.312-1.41 3.201-3.86 3.017 0.011-1.021 0.022-2.039 0.035-3.061-1.273-0.015-2.551-0.028-3.827-0.043-2.555 1.116 2.989 3.229-0.807 3.817-3.33-0.182-1.38-1.349-1.488-3.844-3.086-0.577-4.376 0.685-3.87 3.783 0.75 2.571 8.788 1.971 10.706 0.887 1.698 4.232-4.725 2.731-7.688 2.974-7.655 0.629-17.202-0.563-25.251-0.284-1.213-2.616 0.348-5.407 0.861-8.41 0.895-0.631 2.063-0.986 3.836-0.72 1.977-4.429 6.362-6.396 9.294-9.845-0.715-2.025-1.405-6.574 0.095-8.42 5.791 0.647 11.708 1.167 18.355 0.975 1.853-1.9-1.904-2.585-1.469-5.373 1.789-5.652 8.984-5.777 12.355-9.81 0.225-2.24-1.705-2.371-1.48-4.61 0.61-2.729 1.827-4.841 4.653-5.304 5.496-17.273 2.832-43.899 9.866-60.348 0.729-4.245-1.406-5.689-1.429-9.199-0.175-3.276 2.382-3.757 1.618-7.636-1.13-2.174-4.735-1.929-6.853-3.139-1.748-2.977-2.667-5.604-2.2-8.442 0.418-2.552 3.501-3.641 4.659-6.069 0.559-1.171-0.757-2.19-0.737-2.304 0.739-4.484 4.749-8.217 4.729-12.194-1.769-4.83-6.743-6.523-11.382-8.546-3.43 1.395-6.149 3.52-10 4.481-3.091 3.65-2.387 8.856-3.217 13.735-2.204 12.962-9.441 30.077-15.778 41.913-1.43 2.666-4.86 6.252-6.243 10.646-2.164 6.867-1.748 17.161 5.905 19.199 9.574 2.547 17.388-5.425 13.919-12.854 4.354-0.135 0.253-3.191 0.834-6.113 2.708-2.646 4.271-6.469 10.018-6.008 0.393 4.985 1.231 10.632 0.584 16.077-0.88 7.402-5.625 16.348-10.93 19.009-9.938 4.982-22.663-0.021-29.783-5.694-12.154-23.97 6.001-48.325 12.25-67.974-0.197-1.573-2.028-1.551-3.035-2.332-3.677 2.173 1.808 7.948-1.652 10.697-2.564 0.921-6.522-0.438-9.165-1.637 1.688-2.655 2.941-5.766 4.688-8.363-1.137-1.411-3.283-1.837-4.558-3.113 3.062-4.727-3.704-3.766-2.191-9.208 3.14-1.691 10.632 1.07 10-4.479 0.189-2.455-2.709-1.895-3.792-3.104 1.312-5.623 3.649-10.197 8.554-12.147-2.299-10.358 10.957-8.913 9.364-15.966 5.921-3.489 9.145-9.74 15.454-12.835 3.303-4.874 8.93-7.38 16.165-8.235-4.27 3.633-10.248 5.518-13.887 9.792 3.189 0.167 3.8-2.305 6.913-2.217 0.01 1.623-6.873 2.476-2.342 3.797-3.636 4.854-8.582-0.595-10.763 4.472 6.931 0.374 18.714-0.98 24.538-4.315-0.602 0.675-0.841 1.719-0.8 3.052 8.589-2.311 15.858-5.968 22.312-10.46-0.995-5.398-6.906-1.935-9.936-0.878 0.902-2.432 4.517-2.088 6.164-3.758-1.159-1.875-5.284-0.306-6.129 0.696-2.131-1.008 2.427-1.554 1.571-3.809-2.793-0.536-2.954 1.623-5.373 1.471 0.412-0.611 0.812-1.232 0.793-2.289-7.647-0.938-7.234 3.275-10.018 6.009-1.362-0.729 2.744-3.042-2.271-2.32 4.087-5.378 9.016-5.285 16.887-4.399-1.306-3.795-4.153-5.836-1.425-9.203 0.623 1.643-0.542 4.977 4.546 3.878-0.228 1.577-3.391 0.146-3.086 2.265 2.015 1.922 0.398 5.161 6.068 4.659-0.029 0.743-0.943 0.584-1.537 0.748 7.009 7.021 10.244 17.732 20.417 21.659 6.339-2.029 7.927-8.92 12.391-12.871-3.132-2.233-9.083-1.712-12.199-3.965-1.107 0.933-1.478 2.618-1.581 4.576-4.46-0.181-6.389-2.837-7.584-6.208-3.305 0.962-2.99-1.615-3.792-3.104-4.954 4.625-1.216-5.164-7.606-3.913 0.248-1.037 1.922-0.614 3.069-0.731 0.373-1.627-1.077-1.469-2.281-1.555 0.897-1.143 2.725-3.192 0.043-3.826 5.268-3.105 6.912 7.847 11.42 5.485 1.303 0.996 0.904 3.652 3.018 3.86 1.018-1.885-2.114-3.943 2.346-4.562 0.342-1.598-0.5-2.033-0.73-3.07-1.356 0.159-3.821-0.814-3.078 1.494-1.81-5.547-9.364-5.474-14.451-7.817-3.078 0.949 0.191 1.587-0.043 3.827-4.603-0.799-3.558-4.553-7.576-6.974-1.325 0.969-1.568 3.037-3.104 3.792-2.758 0.174-3.67-1.455-6.104-1.599-1.256 2.048 3.262 5.643 0.663 9.191-3.991-4.277-9.388-10.003-7.455-17.688 1.802 0.038 2.27-1.292 4.602-0.712 0.13-7.696-3.823-11.399-6.706-16.146-5.81-2.143-7-8.798-7.473-16.156 5.181 0.737 7.065 4.698 11.411 6.251 0.194 7.124 6.396 8.377 6.714 15.381 1.529 0.019 3.062 0.035 4.589 0.053 0.164-3.962-0.677-8.951 2.411-9.922 3.461 0.145 1.895 5.212 2.2 8.441 1.027 2.78 3.317 4.326 3.74 7.697 0.748 2.185 5.801 2.854 3.763 5.397-2.275 0.016-3.856-2.295-5.347-0.822-1.278 8.105 10.574 13.069 19 11.692 2.713-0.383 1.85 2.73 4.565 2.348 0.277-3.815-3.418-10.27-7.515-12.33-1.225-2.109 1.917-3.756-0.697-6.13-2.145-1.688-5.842-1.856-6.061-5.425 0.167-2.152 1.37-3.244 3.861-3.018 2.644-6.073 9.251-9.542 9.362-15.965 5.06 1.561 4.317-2.813 5.417-5.298 1.818 2.007 3.227 4.417 3.74 7.695 1.461-0.312 1.943-1.625 3.844-1.488 2.354-13.074 8.511-22.257 14.139-31.98-0.114-0.897-1.389-0.664-2.29-0.792 1.472-1.849 3.178-3.458 6.922-2.983-7.137 13.16-20.051 27.535-16.598 46.495-2.858 0.036-2.188 0.834-4.59-0.052-2.016 2.066-0.947 7.289-3.164 9.147 4.673 2.587 0.147 9.801 8.312 9.276 5.761-9.33 12.657-17.498 22.45-22.703-4.226-0.873-5.109-3.848-3.73-8.463-1.241-1.812-3.392-2.734-3.763-5.397 1.456-3.412 4.437-5.71 4.702-9.896 0.167-2.635-4.242-10.36-2.914-13.043 3.051-0.208 2.034 3.563 4.549 3.878 1.978-0.557 2.688-2.414 2.354-5.329 0.615 3.999 2.84 2.562 6.104 1.599-3.294 6.664 8.978 4.222 11.392 7.783-6.062-0.714-11.767-2.934-16.807-2.489-1.874 1.818 1.833 2.048 0.702 5.367 6.786-0.075 9.91 3.429 16.801 3.251 1.445-0.071 0.561-2.525 2.32-2.272 0.152-1.913-1.146-2.407-2.261-3.086 4.453 1.42 5.532-4.783 3.923-8.373-2.26 0.108-4.763 2.004-6.131 0.697 4.392-3.645-2.939-6.599-7.585-6.208-1.962 0.056-1.262 2.835-2.338 3.801-0.675-0.604-1.718-0.845-3.052-0.8-0.707-2.786 3.444-0.606 3.095-3.026-2.168-2.908-3.52 1.499-5.372 1.468 2.138-11.741 13.884-13.661 14.844-26.61 1.275 0.014 2.55 0.028 3.825 0.043-2.75 12.391 7.828 21.55 4.175 36.78 1.988 2.308 2.94-3.461 5.367-0.706-1.775 2.83-2.844 6.38-3.938 9.904 1.458 1.863 4.238-4.42 6.146-2.226 0.777 3.158-2.538 1.946-3.087 2.26 0.034-0.018-2.937 3.021-3.096 3.026-1.831 0.057-2.471-4.183-4.583-0.814 1.833 5.017 2.396 11.277 5.957 14.606 3.988-1.392-4.466-9.599 0.13-11.478 3.5 0.013 0.01 2.686 0.714 4.599 1.015 1.191 4.949-4.271 7.67-1.442 0.008 3.877-6.748 0.836-6.938 4.512 3.453 8.951 18.979 15.542 24.209 24.764 2.052 3.616 1.897 6.983 1.402 11.497 3.842-1.492 6.027-4.672 5.477-10.653-1.181-2.206 1.974 1.956 0.714 4.602 2.39 3.044 6.17 8.353 10.66 6.927zm-15.3-0.939c-3.061 0.168-5.874 5.007-8.494 6.793 1.708 6.948 0.051 13.207 0.55 19.139 6.531-2.352 9.641-8.199 13.164-13.628-1.433-1.059-3.402 0.836-3.025-3.095 2.412-0.34 2.978 1.123 4.572 1.583 0.996-1.823 2.827-2.786 2.363-6.099-4.34-0.61-5.14-4.916-9.13-4.697zm4.64-3.775c-0.026 1.521-2.101 0.951-1.565 3.043 1.182 2.333 8.396 7.569 9.921 2.407-3.416 0.883-2.751 0.206-3.8-2.338-4.81 0.931-4.08-1.3-4.56-3.112zm7.74-7.567c2.381-0.4 4.706-0.859 4.633-3.771-2.06-1.724-4.82 0.802-4.63 3.771zm0.11-9.944c1.351-0.427 4.481 0.977 4.599-0.714-2.671-3.371-16.284-2.999-14.562 2.13 2.3-1.827 3.041 2.647 5.304 4.654 2.52-0.841 6.34-3.389 4.66-6.07zm33.69 66.193c-2.733-0.354-4.062-2.085-7.638-1.619-0.086 3.87 5.218 5.649 7.604 4.68 0.02-1.02 0.03-2.04 0.04-3.06zm-19.09-4.04c-1.379 1.012-2.42 4.403-0.835 6.112 2.614 0.354 2.323-2.267 3.86-3.019 0.544 2.364-2.118 1.446-1.574 3.811 6.466 0.489 8.05 5.752 14.472 6.285 0.115-3.393-4.227-2.427-5.308-4.649 0.767 0.008 1.532 0.017 2.298 0.025-0.459-1.823-0.988-3.576-3.017-3.86-2.847-0.849-1.244 2.854-3.854 2.251-1.481-1.446-0.206-2.806 0.053-4.593-3.46 0.6-3.8-1.84-6.1-2.37zm9.92 3.17c1.493-2.085 1.859-5.323 2.391-8.39-2.967 0.374-3.723-1.409-6.88-0.845-0.808 1.757-2.661 2.437-2.355 5.33 1.02 2.54 4.02 3.15 6.85 3.91zm-31.23-13.36c-0.073-0.936-0.206-1.814-1.511-1.546-2.11-0.354-0.753 2.844-2.329 3.035 0.001-1.012-1.334-0.716-1.516-1.549 0.937-0.077 1.814-0.207 1.549-1.512-4.906 1.013-5.437-2.257-9.155-2.402 0.553 2.855 4.041 4.568-0.802 3.055 0.772 4.658 6.375 9.361 10.6 10.066 1.247 0.21 2.423-2.442 3.061 0.035-0.932 0.075-1.812 0.21-1.546 1.514 2.353-0.088 3.41 2.733 5.348 0.827 0.816 5.384 4.252 2.617 8.394 2.39 0.047-3.073-3.971-2.172-6.861-2.373 0.052-0.977 0.992-1.051 0.791-2.289-4.716-0.434-5.859-4.36-10.662-4.711 1.446 0.188 1.698-0.844 3.07-0.73 6.368 3.612 12.012 7.933 19.784 10.173 0.456-1.595 1.921-2.161 1.58-4.575-7.098-2.643-15.312-4.199-21.338-7.893 4.33-1.553 7.971 0.313 11.459 1.658-0.937 0.077-1.814 0.21-1.547 1.516 4.108 1.28 8.082 2.694 12.975 3.208-0.863-5.447 3.018 2.229 3.087-2.26-1.646-2.934-8.921-0.362-11.454-2.429 3.41-1.082 4.493 0.058 8.419 0.096 0.013-1.019 0.023-2.04 0.035-3.062-6.24-0.48-16.43-3.44-21.44-0.25zm22.2-1.28c-1.44 1.345 0.602 1.949-0.052 4.589 2.726 0.205 4.015-1.055 3.869-3.78-0.88-0.65-2.04-1.03-3.82-0.81zm3.82 0.81c1.59 0.214 0.172 3.362 1.489 3.84 3.056-0.625 5.642 1.207 6.889 0.078-0.134-2.396 0.575-5.611-0.688-6.896-2.39 1.17-6.41 0.67-7.69 2.98zm6.93-3.75c-0.809-2.66-2.566-5.227-5.312-3.888-0.31 3.23 2.85 5.75 5.31 3.89zm-26.25 20.37c-3.213-1.96-7.504-5.575-9.879-6.233-1.083-0.302-5.869-2.284-6.14 1.462 6.528 0.211 11.764 5.428 17.506 8.615-5.562 0.127-8.388-6.416-12.957-4.739 6.53 3.96 10.727 10.198 19.768 11.704 0.66-1.647 2.01-2.586 1.59-5.337-3.3-0.72-6.35-3.32-9.89-5.47zm2.95 9.98c-8.605-5.347-16.769-10.631-22-17.086 5.277 11.239 14.785 18.341 24.975 24.773 0.122-1.424 0.533-2.554 1.566-3.043 0.601 2.753-1.768 3.683-0.062 5.354 7.34-3.4-1.47-8.13-4.48-9.99zm-27.28-24.03c-0.768-0.009-1.532-0.018-2.295-0.026-0.825 4.643 2.719 8.498 3.667 13.815 1.109 0.433 3.968-0.85 3.817 0.809-1.312-0.055-1.969 0.566-2.312 1.506 1.271 1.528 3.492 2.135 5.321 3.122-2.583 0.662-0.109 1.708-1.563 3.043-1.007-1.008-2.838-1.041-3.069 0.729 1.986 0.33 2.281 2.312 4.563 2.351 0.132-0.902-0.106-2.175 0.792-2.29 1.031 0.255 1.448 1.107 3.052 0.801-1.115 2.808 2.459 3.453 3.775 4.636 2.666 2.392 5.041 6.03 9.165 1.635-5.377-3.392-9.932-10.526-15.948-10.895 1.315 0.057 1.967-0.568 2.312-1.506-4.01-5.75-11.02-10.53-11.27-17.71zm38.02 21.86c-0.977-0.054-1.047-0.993-2.286-0.792-1.438 1.064-4.022 5.81-0.844 6.879 1.84-1.22 2.61-3.54 3.13-6.09zm0.76 0.77c-1.579 1.222-0.028 5.646-1.608 6.866 1.488 1.321 3.807 1.831 4.549 3.879-0.462 2.367-3.622 1.971-3.878 4.55 0.677 1.607 2.229 2.356 4.566 2.347 1.627-3.952 2.556-8.447 3.943-10.671 1.162 1.427 3.761 5.357 6.087 3.13-4.72-3.21-8.04-7.78-13.66-10.11zm-3.16 8.38c0.526 2.348-1.347 2.235-0.818 4.583 1.826-0.97 3.163-2.442 3.879-4.549-1.02 0-2.04-0.02-3.06-0.03zm-2.35 4.57c-2.892 0.135-6.892-0.856-6.91 2.217 0.416 2.617 5.682 0.501 6.858 2.372-0.764-0.01-1.529-0.018-2.295-0.025 2.52 4.601 7.178 7.106 10.592 10.835 0.686-2.396 4.441-1.649 4.643-4.541-1.688-2.305-5.058 1.413-5.338-1.589 0.901-0.111 2.173 0.155 2.304-0.74-1.341-3.104-5.344 0.827-7.633-1.618 2.153 0.656 1.992-1.055 3.832-0.72-2-3.76-5.07-2.06-6.05-6.19zm4.76-14.49c1.315-0.025 1.954 0.61 2.276 1.558 2.7-0.075 3.446-2.152 6.146-2.229-0.25 2.064-3.234 1.337-3.857 3.018 1.745 1.574 3.854 2.791 5.304 4.653 2.227-0.818 5.187-0.89 5.399-3.767-0.744-1.73-4.191 1.605-5.348-0.826 1.272 0.015 2.551 0.028 3.826 0.044-2.13-4.22-11.12-9.4-13.75-2.44zm14.43 9.35c1.218-1.123 0.892-3.408-1.494-3.078-0.23 1.74 0.15 2.88 1.49 3.08zm-25.83-16.37c2.376 2.359 4.15 1.138 6.856 2.375-0.9 0.108-2.169-0.158-2.303 0.737 2.642 3.552 8.4 2.244 10.723-0.642-1.931-2.803-5.252 0.467-7.637-1.618 0.9-0.108 2.172 0.155 2.305-0.74-2.45-2-7.31-3.07-9.94-0.11zm-5.04 39.74c-3.117-0.607-0.202 4.952-3.87 3.783-0.59-2.653 1.466-3.216 0.052-4.593-3.514-1.015-1.264 3.866-3.112 4.559-1.146-1.153-3.343-1.271-5.339-1.593-1 1.979-1.703 2.288-0.816 4.584 1.105 0.43 3.964-0.854 3.816 0.807-2.188-0.175-4.173-0.142-3.852 2.254 1.106 0.431 3.964-0.852 3.817 0.808-1.276-0.016-2.551-0.029-3.826-0.044-0.381 2.537 0.604 2.403-0.836 6.112 2.125 0.7 4.646 1.01 6.096 2.367-2.464 0.141-3.22-1.392-6.112-0.835-0.479 4.504 5.01 3.176 8.376 3.921 2.646-2.645 0.177-5.886-2.212-7.679 4.859-1.752-0.938-5.348 1.628-8.399-1.324-0.722-4.106-0.021-3.801-2.338 3.159 0.945 6.64 1.579 9.922 2.407 1.53-1.49 0.52-4.36 0.06-6.12zm2.22 6.15c1.748-0.538 5.957 1.446 5.377-1.473-1.564-1.744-3.963 1.023-4.566-2.347 2.951-2.143 5.742 1.099 6.079 3.896 2.323 0.058 5.031 0.503 4.617-2.242-3.881-0.498-3.895-4.771-7.593-5.445 0.966-0.303 1.574-0.969 1.559-2.277-2.99 0.97-11.856-2.87-13.026 1.383 3.185 1.738 7.489 0.827 9.932 1.645-0.341 1.718-4.196-0.163-3.854 2.251 1.71 0.34-0.03 4.06 1.47 4.61zm-9.13-4.7c-0.6-4.479-1.296-2.68 0.078-6.888-2.421 0.35-2.687-1.407-5.347-0.823-0.013 1.018-0.023 2.039-0.035 3.061 1.145 0.145 2.827-0.241 3.052 0.798-2.491-0.228-3.692 0.867-3.86 3.021 1.78 0.63 4.33 2.5 6.12 0.83zm-6.79-8.49c-1.379-1.188-6.245-1.242-7.649-0.087-0.025 2.295-0.053 4.59-0.077 6.888 2.602-0.186 8.186 3.632 8.406 0.861-3.07-0.88 0.36-4.21-0.68-7.66zm-8.51 8.32c-1.948 3.736 0.71 7.687 0.662 9.189-0.016 0.381-1.364 1.703-1.567 3.043-0.373 2.473-0.051 3.995 0.689 6.896 3.214-0.369 4.26 1.388 6.869 1.609 1.526-2.049 0.529-6.684 0.878-9.939-0.628-1.657-4.883 0.231-5.341-1.592 2.032 0.017 4.367 0.339 5.366-0.702-0.446-3.708 1.07-5.4 0.087-7.654-3.42 0.55-4.58-1.08-7.65-0.86zm-1.01 21.42c0.335-1.843-1.379-1.682-0.724-3.835-1.913-0.153-2.406 1.146-3.087 2.26 3.093 2.766 5.032 3.314 4.498 8.469 2.295 1.034 4.132 2.52 7.627 2.385 0.961-1.319-0.526-5.089 0.097-8.419-1.55-1.42-6.18-2.5-8.42-0.87zm35.79 16.48c1.929-0.606 4.111-0.957 3.869-3.783-0.766-0.01-1.531-0.019-2.298-0.026-0.79 0.99-0.78 2.81-1.57 3.81zm4.56 2.34c-1.914-0.153-2.408 1.146-3.087 2.26 1.021 0.012 2.043 0.022 3.061 0.034 0.01-0.76 0.02-1.52 0.03-2.29zm-6.96 74.16c-1.533 1.486-0.536 4.363-0.069 6.121 6.17 1.03 5.53-6.99 0.07-6.12zm-196.17-113.19c0.255-1.03 1.105-1.448 0.801-3.052-2.464-0.973-0.613 2.472-3.078 1.497 0.118-1.913 1.488-2.382-0.73-3.069 0.606 2.168-1.101 1.968-0.807 3.818 1.774-0.23 2.934 0.15 3.814 0.8zm51.867-52.22c2.814-0.219 4.256-1.84 6.914-2.218-0.159-1.359 0.814-3.824-1.494-3.077 0.123 5.77-5.774-1.96-5.42 5.3zm28.46-12.69c0.578-4.577-7.192-4.254-4.495-8.468-2.348 0.528-2.236-1.345-4.584-0.817 2.913 3.21 3.722 8.48 9.079 9.29zm-2.088-18.39c0.154 1.446-0.883 1.678-0.802 3.052 1.901 0.137 3.182-0.36 3.845-1.489-1.519-0.02-0.947-2.09-3.043-1.56zm15.411-9.005c-1.132-1.498-3.237 1.3-3.809-1.575 0.766 0.009 1.532 0.017 2.297 0.025 0.15-1.914-1.148-2.407-2.263-3.087-1.175 3.958-8.036 2.1-9.251 6.019 1.662 1.713 2.559-1.313 4.609-1.479 0.751 1.535 3.371 1.244 3.019 3.859-2.553-0.864-5.713-1.448-6.896 0.688 1.394 2.171 3.186 3.95 3.749 6.932 3.083-0.492 4.36 0.78 6.878 0.843-0.331-2.404 1.949-2.136 3.097-3.025 1.305 1.325-1.158 2.995 2.26 3.086 1.26-3.75-4.97-6.101-3.7-12.295zm6.04 6.952c0.609-2.863-2.901-1.698-3.018-3.857 1.477-1.422 1.381 0.467 3.827 0.043 1.31-4.002-4.476-3.572-6.096-2.367 0.43 3.146 1.89 8.364 5.29 6.181zm-8.79-34.536c0.767 0.009 1.532 0.018 2.299 0.025 0.008-0.766 0.017-1.529 0.025-2.294-0.511-0.005-1.021-0.011-1.532-0.017-0.06 0.976-0.99 1.047-0.79 2.286zm-4.58-1.582c0.506 4.549 4.521 5.666 7.562 7.736 0.47-2.554-4.01-9.01-7.56-7.736zm-3.848 2.252c-0.845 2.846 2.857 1.243 2.251 3.853-2.076-1.746-3.755-1.706-6.111-0.835 1.175 2.885 4.177 3.989 6.052 6.19 1.326-0.449-0.019-3.632 1.576-3.81 1.312 1.323 2.006-0.096 4.581 0.818 0.008-0.767 0.017-1.529 0.025-2.295-3.74 1.771-3.24-4.785-8.368-3.921zm48.758-48.43c-4.101-0.064-6.163 1.954-6.19 6.053 1.457 0.885 4.679 2.999 4.599-0.712 0.572-2.073-3.614 0.505-3.044-1.565 1.266-2.219 1.895-0.819 4.603-0.714 0.01-1.019 0.02-2.041 0.03-3.062zm9.18 0.87c2.057-3.468-0.795-5.452-3.757-6.165-0.892 1.668-2.011 3.104-1.6 6.104-3.749-0.224-4.046 3.087-4.661 6.069 3.01 2.914 6.336-3.516 8.435-1.434-0.698 1.347-3.115 0.939-2.338 3.798 1.885 0.124 3.685 0.16 4.601-0.711-0.442-1.839-1.062-3.506-0.697-6.13-1.419-1.947-3.994 1.562-4.574-1.584 2.259-0.271 1.538-3.589 3.112-4.555 0 2.029-0.47 4.502 1.49 4.608zm-3.74-7.693c0.025-1.522 2.1-0.951 1.565-3.048-1.93-0.824-3.43 2.544-1.57 3.048zm-5.43 6.061c3.482 0.724 3.124-2.484 3.879-4.549-3.18-0.42-3.69 1.898-3.88 4.549zm12.13 10.083c-0.445-1.581 1.293-5.301-1.479-4.606-0.01 2.029-0.47 4.5 1.48 4.606zm-3.84 1.489c-0.782 3.074 4.539 3.134 3.826 0.043-1.91-0.105-2.36-1.462-3.83-0.043zm36.58 13.424c-2.484 6.913 0.135 18.09 1.27 22.974 0.689 2.963 0.091 7.438 2.975 7.686 0.215-2.431-0.118-6.763 4.646-4.538-1.407-5.27-4.485-9.266-5.186-15.364-0.651-5.715 1.096-12.154-2.87-16.87-0.765-0.008-1.529-0.017-2.295-0.025-0.69 3.185 1.44 3.627 1.45 6.137zm-58.13-2.952c0.021-1.012 1.351-0.686 1.547-1.515-0.979-0.055-1.049-0.993-2.286-0.792 0.11 0.904-0.15 2.172 0.74 2.307zm-0.77 0.754c-0.375 2.387 1.606 2.466 3.802 2.341-0.118-1.146 0.305-2.82-0.731-3.068-0.16 1.13-1.86 0.678-3.07 0.727zm25.22 2.583c2.859-0.039 2.193-0.834 4.594 0.052 0.23-1.743-0.151-2.878-1.497-3.077-0.09 1.963-2.99 1.058-3.09 3.025zm1.27 23.736c0.765 0.012 0.916-0.609 1.537-0.748-2.116-3.732-1.346-10.288-5.219-12.303 0.475 2.805-1.688 2.917-1.592 5.341 5.34-0.067-0.55 7.449 5.27 7.71zm-6.78-10.025c-0.213 1.19-1.685 0.514-2.295-0.025-1.196 3.61-6.021 9.352-10.009 5.245 3.213-3.178 11.369-5.98 8.537-10.618 1.506 1.29 0.976-0.059 3.062 0.033 0.467-1.586 1.635-2.453 2.338-3.801-2.946-2.627-4.629 0.994-6.9 1.454-2.905-2.23-11.104-9.273-13.749-2.453 3.785 2.083 2.97 2.294 6.835 4.67-2.42-0.151-2.581 2.004-5.375 1.472 1.679-1.731 0.331-4.773-2.243-4.618 1.159 4.541-2.729 3.917-2.382 7.627 1.79 2.032 5.667 2.025 8.382 3.156-2.681 1.642-6.688 1.93-6.199 6.814 3.703 2.729 9.31-0.019 12.992 1.679-1.748 0.535-3.919 0.639-5.374 1.473-2.104 11.302 14.487 6.102 17.59 0.962 0.045 2.09-1.291 1.527-0.034 3.061 2.083 0.581 1.56-1.502 3.078-1.494-1.497-3.077-3.603-5.562-6.81-6.965-1.807 0.216-1.453 2.64-3.851 2.251-1.236 0.313-2.537-2.881-0.729-3.068-0.716 2.663 2.479 1.335 3.052 0.8 0.604-2.609-3.1-1.007-2.252-3.854 1.317 0.295 4.703 2.367 5.347 0.827-1.64-0.928-1.76-3.337-3.02-4.628zm3.16-8.382c0.461-1.851 4.947 0.415 4.616-2.243-1.71-2.351-6.73 0.858-4.62 2.243zm-106.59 18.694c2.717-2.582 3.844-0.104 6.879 0.844-0.729-3.83-4.824-4.368-7.584-6.211-0.014 2.033-0.336 4.368 0.705 5.367zm112.49 1.272c0.512 0.006 1.021 0.013 1.529 0.019 0.005-0.512 0.011-1.021 0.017-1.532-0.508-0.006-1.019-0.011-1.528-0.018-0.01 0.51-0.02 1.02-0.02 1.531zm4.6-0.714c0.179 6.884-5.704 10.146-7.086 17.521 4.002-0.052 5.278-6.957 7.719-6.035-3.12 6.097-3.929 14.558-6.362 21.358-0.479-6.908 0.439-10.062 2.478-16.043-3.687 0.392-8.383 7.613-4.687 8.364-0.982 1.315-2.609 1.976-2.347 4.567 3.086 0.606-2.48 5.621 0.668 8.425 0.192-0.829 1.281-1.823 1.541-0.749-0.845 1.977-1.902 3.729-1.61 6.87 6.952-0.766 0.614-9.729 4.714-10.662 3.066 2.023-1.609 7.459 2.966 8.454 1.923-2.043-1.743-8.072 0.888-10.706-0.562 3.073 0.682 4.376 0.688 6.896 3.937-0.208 1.269-4.89 1.616-7.636 0.681-5.361 2.464-11.955 4.767-15.251-0.245 5.684-3.079 8.721-2.472 15.277 3.291 0.818 5.922 2.284 5.28 6.947 3.082-0.49 4.36 0.785 6.875 0.845 1.289-7.951-2.582-11.445-0.555-18.373-0.345 3.406 3.229 2.447 3.792 3.104-2.096 0.695-1.796 3.841-2.367 6.096 1.788 0.773 3.746 1.385 6.104 1.598-1.446-1.926 1.204-3.131-0.71-4.598-0.002 2.058-3.875 2.015-3.826-0.043 5.102-1.447 0.621-3.217 3.896-6.079-1.311-1.938-5.437 1.888-6.106-1.602-0.526-2.345 1.347-2.235 0.818-4.581-4.223-0.353-2.004 4.159-3.122 5.32-2.943-6.202-9.009-9.354-12.845-14.684 3.8-0.162 3.71-5.248-0.7-4.607zm-8.27 54.239c6.102-0.053 2.586-5.943 3.183-10.68-0.767-0.01-1.532-0.019-2.295-0.026-2.3 4.53 0.4 5.55-0.89 10.71zm11.72-21.291c0.561 0.548 3.725 1.948 3.068-0.731-1.15 0.118-2.82-0.306-3.07 0.731zm11.71-20.532c-2.029-0.035-4.511 0.372-4.575-1.581 0.101-1.446 2.537-0.504 2.321-2.271-1.729-1.677-4.771-0.332-4.615 2.246 1.055 1.743 3.069 2.548 3.773 4.633 1.96-0.073 3-1.082 3.11-3.027zm-6.04-6.957c-2.239-0.225-2.37 1.705-4.61 1.479-0.607-2.172 1.1-1.972 0.809-3.818-1.949 0.071-2.979 1.082-3.095 3.026 2.58 2.098 5.19 2.869 6.9-0.687zm-125.45-5.242c1.748 5.401 4.24 2.965 0 0zm149.19 3.981c0.01-0.767 0.018-1.532 0.025-2.295-0.901 0.107-2.169-0.158-2.303 0.736 1.2 0.088 0.57 1.961 2.28 1.559zm-61.22-0.691c0.511 0.006 1.021 0.012 1.532 0.018 1.21-1.87-2.574-2.281-2.286-0.792 0.47 0.047 0.91 0.124 0.76 0.774zm-6.15 2.225c-0.006 0.511-0.013 1.021-0.019 1.531 0.77 0.006 0.905 0.631 1.522 0.78 0.052-0.978 0.993-1.048 0.792-2.286-0.76-0.008-1.52-0.017-2.29-0.025zm4.62-2.243c-1.428 0.09-2.562 0.472-3.078 1.494 1.12 1.218 3.41 0.892 3.08-1.494zm22.12 6.372c2.695 0.339 4.231-2.546 3.104-3.792-2.15 0.119-3.27 1.296-3.1 3.792zm5.43-6.061c-0.764-0.008-1.529-0.017-2.295-0.025-0.01 0.766-0.019 1.528-0.025 2.295 1.66 0.158 2.44-0.599 2.32-2.27zm-109.44 0.292c-0.124 1.886-0.16 3.686 0.711 4.602 2.022 1.764 5.522-1.492 3.861-3.019-0.68 1.113-1.173 2.413-3.086 2.261-1.394-3.487 3.051-1.006 2.338-3.801-0.623-2.249-2.469 0.43-3.824-0.043zm37.391 9.606c-1.118-0.483-4.855-4.545-5.35-0.823 2.519 0.249 3.182 3.913 7.619 3.146-0.363-2.642 5.033-3.344 5.364-0.705-2.913 0.375-4.269 2.34-7.677 2.208-1.035 3.787 4.519 1.131 5.32 3.121-2.417 0.109-4.57 0.486-4.624 3.009 1.845 1.5 6.394 0.81 8.416 0.095 0.748-1.415-2.263-2.583 0.035-3.061 2.171-0.607 1.971 1.103 3.818 0.81 1.891-1.782-1.128-1.436-0.724-3.835-1.418-0.748-2.582 2.263-3.061-0.034 2.314-0.985 2.833-3.811 3.896-6.079-1.519-0.976-3.328 0.764-3.801-2.338-2.987 1.611-5.754 3.423-9.253 4.486zm2.355-5.33c-1.772-0.263-2.938 0.092-3.835 0.723 0.119 2.153 1.296 3.275 3.792 3.104 1.452-1.444-0.439-1.39 0.043-3.827zm3.809 1.576c-0.564-0.907-0.637-5.606-5.303-4.653 1.082 1.75 3.017 6.589 5.303 4.653zm41.339-1.065c0.234-1.741-0.15-2.879-1.497-3.078-1.22 1.123-0.89 3.409 1.5 3.078zm13.8-2.139c0.071 1.947 1.079 2.979 3.026 3.095 0.408-1.129 1.151-1.917 1.562-3.043-1.78-0.257-3.14-1.534-4.59-0.052zm-51.29 0.95c0.165 0.597 0.001 1.51 0.745 1.54 0.021-1.013 1.35-0.687 1.55-1.515-1.08-0.308-1.27-0.933-2.29-0.025zm27.52 3.371c2.446 0.696 2.408-1.15 3.087-2.261-0.977-0.055-1.047-0.991-2.286-0.792-0.26 1.035-1.11 1.453-0.8 3.053zm-54.438 8.572c-1.342-4.237-2.547-8.61-5.227-11.541-0.072 5.62 2.522 8.636 5.227 11.541zm40.498 5.813c2.855-0.931 5.221-4.877 6.974-7.575 2.076-3.191 4.061-6.893 4.696-9.131-3.96 5.499-10.7 8.151-11.67 16.706zm11.6-10.584c3.565 0.027 3.608-3.771 0.043-3.827-0.1 1.905-1.46 2.353-0.04 3.827zm13.04-2.914c1.804 0.005 2.237 1.343 4.581 0.817-0.041-1.333 0.199-2.38 0.801-3.052-2.2-2.028-4.53 0.514-5.38 2.235zm8.42 0.096c2.39 0.382 3.423-0.628 3.096-3.025-3.33-0.344-4.26 0.561-3.1 3.025zm-11.49 0.636c-0.116-1.146 0.305-2.82-0.729-3.068-1 1.002-1.04 2.833 0.73 3.068zm-78.077 1.412c3.238-0.439 2.831-1.668 2.348-4.563-0.764-0.008-1.529-0.018-2.295-0.026-1.058 0.965-1.088 3.599-0.053 4.589zm96.447-1.971c-2.864-0.141-6.709 2.366-11.506 2.165-2.226-0.09-4.172-2.482-6.112-0.832 1.144 6.615-1.835 14.942-4.057 20.616-0.16-1.356 0.812-3.824-1.498-3.078-1.563 0.721-1.687 2.921-1.589 5.338 2.148 0.327 3.299-3.444 3.052 0.801 2.581-0.457 2.438-3.7 6.155-2.992 1.332 0.717 2.645 1.453 2.252 3.854 6.77-6.242 7.67-18.483 13.31-25.868zm-0.02 2.295c1.738 2.296 6.146-2.714 2.338-3.798-0.87 1.174-2.51 1.564-2.34 3.798zm-30.64 1.952c-1.241 2.979 1.973 1.606 2.264 3.087-4.199 7.822-9.499 23.809-3.433 32.867-0.503-3.172 2.671 0.831 3.844-1.485 0.328-10.599 5.151-27.161 5.778-37.434-2.01 4.322-5.89 3.587-8.45 2.973zm-1.54 1.512c-2.012 3.546-7.41 9.492-1.67 12.227 1.829-1.773-0.079-3.761 0.069-6.122 1.335 0.073 2.384-0.146 3.07-0.729 0.1-2.373-0.3-4.251-1.47-5.376zm-5.47 9.887c-1.275 3.477-3.162 11.159-2.514 19.104 0.791 9.647 5.576 24.322 9.766 16.182-3.916-0.135-0.584-9.252-6.757-11.555 0.979 0.051 1.05 0.993 2.289 0.789 0.855-3.864-2.22-3.883-2.992-6.156 4.385 1.598 0.497-3.762-0.706-5.364 1.021 0.012 2.04 0.023 3.062 0.034-0.102-4.077-1.216-5.736 1.614-7.636-0.63-2.389-1.84-4.234-3.76-5.386zm-1.86 29.062c-1.9-0.14-2.383 1.175-3.844 1.488-1.109 2.912 1.937 5.593-0.078 6.884-2.014 0.205-0.566-2.974-3.035-2.33-0.028 2.033 0.24 4.375-0.822 5.347-1.303-1.058-2.983-2.506-3.072 0.731 3.262 2.355 14.43 4.709 15.324-1.356-1.8-3.29-3-7.16-4.48-10.76zm21.41 1.77c0.771 0.008 0.92-0.612 1.541-0.749-0.463-2.288-4.85-0.712-6.122-0.069-5.319 2.681-13.793 15.035-18.589 19.688-3.013 2.922-8.232 5.195-10.043 8.305-1.979 3.396-2.922 10.279-3.208 12.974-0.909 8.488 0.486 16.507-1.818 25.234 8.088-0.506 13.581-7.777 14.688-12.845-0.868 0.494-3.007 3.514-3.844 1.485 3.01-1.563 5.977-3.171 6.208-7.581-1.889-1.018-3.201 2.209-3.827-0.043 6.081-1.521 8.996-6.278 12.364-10.576-4.656-1.382-7.769 2.854-10.721 0.646 7.107-1.501 13.406-3.831 16.938-8.991-1.264-1.288-3.665-1.461-4.557-3.113 7.266 3.041 17.931 2.793 22.983-2.035 2.404-0.337 1.997 2.081 3.798 2.339 1.822-2.523 6.898-1.72 6.957-6.043-3.354-2.054-4.052 1.616-6.913 2.216 1.004-2.588 4.276-2.852 4.661-6.069-3.116 1.59-5.641-0.715-6.853-3.139-2.021 0.768-4.706 0.861-7.662 0.68-0.404 2.396 2.617 2.051 0.722 3.832-10.14 1.15-17.28-12.26-6.71-16.15zm-39.824 69.96c18.738 2.895 22.491-16.193 27.126-30.304-10.389 7.435-8.556 27.369-27.083 26.48-0.012 1.27-0.026 2.54-0.041 3.82zm0.867-9.18c-3.586 0.462-4.072 4.091-5.433 6.827 2.641 1.32 6.415-1.95 5.433-6.83zm35.817-53.93c0.326-0.959 1.006-1.552 2.314-1.503-1.179 2.294-3.932 5.686-0.077 6.887 1.212-1.085 0.646-3.98 3.104-3.792-0.558 2.864-2.669 5.062 0.694 6.13-0.527-5.96 8.141-2.515 11.531-4.463 1.224-6.448-5.627-8.001-2.155-12.269-2.043-0.023-4.082-0.046-6.125-0.069 0.223 3.431-7.75 2.114-10.005 5.246 0.4 1.11-0.94 3.94 0.72 3.82zm-57.793-32.794c1.358-2.265-2.678-4.636-4.523-6.173 1.029-1.269 2.057-2.54 1.594-5.338-2.875-0.18-3.423-1.462-2.256-3.853-3.038-1.14-8.114-6.898-10.693-1.649 3.116 1.492 0.904 8.193 6.807 6.965 0.508-2.81-4.758-3.865-3-5.394 3.321 1.8 6.462 3.775 7.566 7.74-3.11 1.02-2.4-1.69-4.575-1.584-0.141 1.145 0.242 2.827-0.797 3.052 0.351-4.306-6.439-3.324-9.156-2.397-0.955 8.662 5.748 5.244 9.851 8.527 2.214-0.878 0.88-4.832 1.592-5.338 0.478 2.297 1.643-0.713 3.061 0.035 0.466 2.82 2.775 3.843 4.529 5.407zm57.593-17.715c-0.253 2.015 1.03 2.523 3.034 2.329 0.25-3.161-0.87-3.086-3.03-2.329zm21.39 4.068c1.007-1.007 1.041-2.834-0.729-3.068-1.01 1.006-1.05 2.834 0.73 3.068zm-19.93 2.07c0.006-0.511 0.013-1.018 0.019-1.528-1.38-2.56-3.75 2.252-0.02 1.528zm68.09 2.303c3.949 0.186 5.023 2.437 8.364 4.686-0.155-1.447 0.882-1.679 0.801-3.053-3.52-0.846-4.799-3.887-7.594-5.441-0.34 1.452-1.66 1.9-1.57 3.808zm-51.27-0.58c2.013 0.253 2.521-1.033 2.33-3.035-0.767-0.008-1.529-0.017-2.295-0.025-0.01 1.017-0.03 2.038-0.04 3.06zm0.65 10.719c-1.121 0.003-2.389-3.252-2.298-0.026 0.307 1.707 4.055 0.646 4.593 0.052-1.431-3.191 1.329-8.972 0.131-11.477-2.85 3.337-3.47 7.389-2.42 11.451zm-18.29-7.092c-0.158-1.358 0.816-3.823-1.493-3.078-0.24 1.742 0.15 2.877 1.49 3.078zm-0.8 3.053c0.231-1.744-0.154-2.879-1.498-3.078-1.22 1.123-0.89 3.409 1.5 3.078zm15.31-0.594c0.51 0.007 1.018 0.013 1.528 0.019 0.055-0.978 0.992-1.05 0.792-2.286-0.768-0.009-1.529-0.018-2.296-0.026 0 0.762-0.01 1.528-0.02 2.293zm-0.79 2.287c0.511 0.006 1.021 0.013 1.532 0.019 0.006-0.512 0.012-1.021 0.018-1.529-0.511-0.006-1.021-0.012-1.532-0.018-0.01 0.507-0.01 1.017-0.02 1.528zm-87.294 4.365c-0.466-2.319-1.146-4.429-3.771-4.633 0.465 2.323 1.145 4.433 3.771 4.633zm107.9 0.46c-0.413 3.794 4.729 1.825 5.354 0.062-1.42-1.53-3.6-0.41-5.35-0.06zm-26.83 4.29c-2.334-0.581-2.266 1.295-4.601 0.714-0.889-3.747 1.282-4.367 3.121-5.321-2.332-0.581-2.795 0.75-4.598 0.711-1.016 1.889 1.663 3.734-0.044 3.827-0.809-0.722-0.209-2.823-2.27-2.319-1.066 0.975-0.797 3.312-0.827 5.346-1.03-0.251-1.45-1.106-3.051-0.797 0.041 1.333-0.198 2.376-0.801 3.051 0.998 1.883 2.858-0.811 3.052 0.798-0.021 1.787-0.04 3.571-0.061 5.359-1.332-0.074-2.382 0.141-3.069 0.728-0.407 3.241 7.354 6.02 7.636 1.619-0.885-1.894-2.91 1.533-3.818-0.81 5.72-1.64 7.47-7.32 9.33-12.91zm-14.68 12.08c-0.172 0.856-0.864 1.183-1.549 1.515 0.814 1.764 2.12 6.956 4.541 4.646-1.768-1.169-1.147-1.885-0.723-3.835-2.74 1.14-0.44-2.62-2.27-2.34zm18.55-16.63c-1.408 2.428-2.563 5.115-3.912 7.605 1.03 0.256 1.447 1.106 3.053 0.802-2.59-4.59 5.43-4.91 0.86-8.41zm9.18 0.87c-1.794-0.264-2.86-1.24-5.348-0.823-2.771 3.359-3.899 8.395-5.506 12.948 8.68-0.32 12.94-4.56 10.86-12.13zm-7.82 14.45c1.131 0.155 0.682 1.856 0.73 3.068 2.187 1.093 3.909-2.042 4.593 0.052-0.936 0.076-1.813 0.207-1.548 1.512 1.743 0.508 4.597 1.571 6.12 0.068 0.012-1.018 0.022-2.04 0.034-3.061-1.771-0.263-2.938 0.091-3.835 0.723-0.215-4.108-4.542-1.216-1.469-5.373-2.27 0.26-3.79 1.29-4.62 3.01zm3.77 5.4c-0.651 0.88-1.032 2.04-0.811 3.818 1.953 0.854 3.676-2.285 4.593 0.052-0.848 0.996-4.158 3.407-1.592 5.338 0.219-0.691 2.881-2.537 3.069-0.728-0.006 0.507-0.013 1.018-0.019 1.528-1.447 0.155-1.678-0.882-3.052-0.801 0.53 2.349-1.346 2.236-0.815 4.583 1.346 1.445 1.95-0.6 4.591 0.052 2.215-2.771-1.026-7.791 0.104-9.182 1.617 1.952 0.997 6.09 2.2 8.442 8.872-2.538 17.07-5.763 20.818-13.542-3.262 0.838-3.555 0.333-4.568-2.348 1.438 0.866 3.604 1.02 5.342 1.594-0.091-5.636-6.105-7.194-9.095-7.758 0.995-1.044 3.33-0.719 5.363-0.706 0.035-2.026-0.372-4.51 1.58-4.571 0.958 0.325 1.557 1.005 1.507 2.312-0.706 1.34-2.832 1.232-3.097 3.026 2.311 1.021 1.739 4.858 6.079 3.896 0.893-3.394-1.99-3.099-2.233-5.382 5.328-6.949-9.794-10.471-12.19-4.73 2.122 1.481 0.29 5.399-1.593 5.338 1.331 1.457 2.381-1.021 3.043 1.565-2.066 2.088-1.653-0.922-3.818-0.809-1.553 1.543 0.323 1.504 0.731 3.069-3.521 3.625-10.435 3.777-11.589 9.817-0.71-2.06-1.87-3.7-4.54-3.87zm4.64-4.54c1.195-2.422 0.306-3.366 0.069-6.122-4.09-0.37-3.57 5.95-0.07 6.12zm-25.88-12.53c0.394 3.474 4.43-4.334 0.773-0.757-0.37 0.36-0.87-0.16-0.77 0.76zm-33.782 9.56c5.741 3.123 8.938 4.096 16.783 4.783-3.97-3.567 3.979-4.368 0.87-9.173-2.421 0.094-4.618-0.027-5.338-1.594 2.468-1.522 2.707-0.844 5.373-1.468-1.305-4.779-11.327-1.038-15.27-3.234-0.183 4.18-1.492 7.24-2.412 10.68zm44.382 0.5c2.824 0.567 3.396-1.17 3.104-3.79-2.15 0.12-3.27 1.3-3.1 3.79zm88.77 1.01c0.675 3.669 4.982 7.29 8.371 3.921-1.264-0.59-5.731-1.88-3.79-3.104 1.353 0.693 1.921 2.157 4.574 1.584 0.104-3.182 0.79-2.694 1.599-6.104-4.54 0.25-6.7 2.94-10.75 3.7zm-97.96-0.35c0.012-1.021 0.021-2.04 0.033-3.062-3.91-1.03-3.6 3.71-0.03 3.06zm6.84 3.91c2.394 0.385 2.179-1.9 3.095-3.026-1.77-2.09-5.14 1.21-3.09 3.03zm3.04 2.33c1.802-1.253 6.527 0.485 6.155-2.99-1.785 0.213-3.314 1.597-3.817-0.811 0.179-3.33 3.631 0.954 3.091-2.26-1.277-0.014-2.554-0.029-3.827-0.043 0.81 3.41-3.42 4-1.59 6.1zm74.24-0.69c1.177 0.867 1.565 2.506 3.801 2.338 0.252-1.032 1.104-1.448 0.798-3.053-1.7-0.36-4.13-1.81-4.6 0.71zm9.94 0.87c-0.45-2.331-1.656-3.93-4.55-3.875-0.052 0.977-0.993 1.047-0.792 2.286 1.27 1.03 2.54 2.06 5.34 1.59zm-36.71-1.94c1.104 3.463 6.27 2.952 10.68 3.183-0.92-3.64-6.22-4.3-10.68-3.18zm16.81 2.48c-0.072-2.956-2.949-3.167-6.087-3.13-0.44 3.35 3.52 5.09 6.09 3.13zm5.36-0.7c-1.353-0.694-1.919-2.158-4.572-1.581-0.56 3.73 3.21 3.16 4.57 1.58zm3.81 1.58c1.293-1.505-0.059-0.976 0.033-3.062-1.021-0.011-2.04-0.022-3.061-0.034 0.07 1.94 1.08 2.97 3.03 3.09zm19.11 1.74c3.488 0.423 4.353-1.281 6.888 0.078 0.012-1.021 0.022-2.042 0.034-3.063-3.15 0.12-7.49-0.96-6.92 2.98zm-152.29-0.19c2.604 0.605 3.02-2.89 0.801-3.052-0.256 1.03-1.107 1.45-0.801 3.05zm-4.619 2.24c2.825 0.567 3.396-1.173 3.104-3.789-2.153 0.12-3.275 1.3-3.104 3.79zm104.84 0.43c0.41-1.129 1.154-1.918 1.565-3.043-1.92-0.84-3.41 2.53-1.56 3.04zm51.27 0.58c-0.453 3.722 5.043 1.629 6.853 3.139 0.016-1.276 0.029-2.554 0.045-3.827-2.39 0.13-5.6-0.58-6.89 0.69zm-146.94-0.14c0.512 0.006 1.021 0.012 1.532 0.017 0.006-0.511 0.013-1.021 0.019-1.527-0.512-0.007-1.021-0.013-1.532-0.019-0.007 0.51-0.013 1.02-0.019 1.53zm-3.892 6.08c1.365 5.726 4.335 9.889 5.948 15.372-3.88-3.268-5.427-8.817-9.043-12.348-2.583 1.79 2.608 4.431-0.069 6.122-0.988-3.201-3.42 4.478-6.931 3.749-0.116 9.951 2.597 17.134 7.398 22.278 1.6-2.926-1.791-6.566-2.938-10.749-1.074-3.914-3.293-10.059 0.904-12.234 0.727 4.351 5.46 8.772 4.454 12.295-2.81-1.29-1.469-6.634-5.28-6.943 1.663 4.68 1.07 11.563 5.203 13.832-0.175-6.109 4.966-6.789 8.52-9.087-0.582-4.726 2.176-6.033 3.922-8.374 0.167-11.77-3.709-19.583-15.854-19.312-1.782 2.577-7.908 10.025-1.662 11.459 0.324-3.026 1.14-5.543 2.384-7.625 8.019-2.497 10.035 5.938 12.113 11.615-3.594-2.41-3.948-11.62-9.069-10.06zm90.328-2.04c0.884 0.65 2.04 1.031 3.818 0.809 0.233-1.742-0.151-2.879-1.494-3.078-0.11 1.45-2.54 0.5-2.33 2.27zm-110.97 0.28c0.169-0.054-1.245-1.705-2.277-1.558-1.781 0.253-1.813 2.29-3.087 2.26 0.081 0.004-0.715-2.839-2.277-1.555-0.266 1.771 0.088 2.938 0.72 3.835 5.421-0.395 10.188-1.452 12.305-5.22-2.71-2.38-3.147 1.52-5.384 2.24zm178.28 2.78c-2.674-2.257-4.551-1.502-6.853-3.139-0.37 3.34 5.7 6.03 6.85 3.14zm-205.12 1.51c3.278 0.258 5.064-1.008 6.909-2.217 0.022 1.053-0.377 1.678-0.788 2.287 5.129-1.438 11.836 1.902 12.303-5.217-2.846-0.846-1.244 2.855-3.854 2.251-0.107-0.901 0.156-2.169-0.739-2.305-3.591 3.93-10.672-1.01-13.831 5.21zm-0.347 30.61c-0.505-4.387 4.415-3.227 3.91-7.61-4.643-1.594-8.085 3.671-12.312 5.983-4.396 2.407-13.185 3.488-13.875 9.025 4.382 0.219 8.794-2.771 11.477 0.131-5.909 2.634-3.485 13.278-7.87 19.044 0.902 0.381 1.727 0.835 2.281 1.559-1.332-0.075-2.384 0.141-3.069 0.729-2.792 9.789-7.042 18.085-10.259 27.437 0.55 1.228 3.748-0.132 3.035 2.329-1.772-0.263-2.94 0.092-3.835 0.724-1.22 2.704 2.595 0.489 2.269 2.32-0.198 1.343-1.336 1.729-3.078 1.497-0.237 2.595 0.521 6.209-0.853 7.643 0.894 1.146 2.879 1.226 3.801 2.342-1.906 0.888-2.868 2.741-2.364 6.096 2.398 0.55 3.128-0.057 3.818 0.806-0.344 1.456-2.202 1.361-1.575 3.81 1.676 0.575 2.503 3.621 4.576 1.584-0.14 1.9 1.175 2.384 1.485 3.845 3.288-1.869 2.479 3.207 6.86 2.372 2.172-0.617 2.641-2.979 3.88-4.549 0.842 3.183-1.645 2.964-1.594 5.341 1.333-0.044 2.38 0.194 3.053 0.798 0.34-1.46 0.313-3.292 2.332-3.035 0.107 0.901-0.158 2.172 0.736 2.306 2.911-1.387 3.333-5.016 3.904-6.844 2.769 0.727 0.442 2.264 0.714 4.6 3.916 0.65 2.251-4.402 3.896-6.079 1.768-0.213 0.824 2.221 2.269 2.32 2.305-1.394-0.909-5.493 0.835-6.111 1.204 0.085 0.576 1.959 2.277 1.558 0.798-2.541 1.436-5.24 2.381-7.627-1.01-0.777-2.293-1.287-3.035-2.33 1.332 0.071 2.384-0.144 3.069-0.729-1.069-4.021-1.082-2.895 0.078-6.889-1.227-1.163-5.633-1.213-6.885-0.077 1.693 3.389-0.883 10.95 2.922 12.279-2.332-0.58-2.798 0.75-4.602 0.711-1.03 1.903 3 2.434 0.731 3.07-3.198-0.239-9.129 2.907-9.277 8.314 0.121-1.887 0.157-3.687-0.714-4.603-5.379 0.083-6.406 0.61-9.165-1.632-2.847-0.85-1.244 2.854-3.854 2.252 1.252-0.891 2.835-4.814 0.062-5.355-1.63 0.912-2.256 2.853-4.627 3.01 0.521-2.256 4.973-3.043 3.124-5.325-2.407-1.078-4.643 1.845-5.358-0.062 0.922-1.378 3.999-0.555 5.376-1.467 0.481-1.829 1.139-3.479 0.832-6.113-3.146-0.204-6.509-0.194-7.624-2.385 3.967 2.219 9.65 0.283 9.234-4.485-0.856-1.686-5.868 0.69-4.559-3.111 1.794 0.263 2.86 1.24 5.351 0.826 0.001-1.804 1.343-2.24 0.813-4.584-1.896 0.091-3.713 0.101-3.806-1.572 2.241 1.729 6.973 0.83 6.156-2.991-3.829 0.687-8.998-1.257-7.619-3.149 1.434 2.921 10.292 3.878 9.965-1.416-2.327-0.248-5.226 0.062-5.33-2.355 2.459 0.367 4.127 1.514 6.867 1.606 0.661-1.646 2.013-2.588 1.593-5.339-4.271 0.826-7.771-0.108-9.914-3.173 3.539 0.703 11.87 5.854 12.26-1.394-1.212-1.84-6.748 0.543-6.861-2.373 2.68 0.407 4.969 1.196 8.411 0.86 1.426-2.671 2.816-5.377 3.922-8.377-1.354-1.954-7.403 0.682-7.627-2.381 2.396 1.279 9.669 1.922 9.208-2.19 0.248-1.501-1.018-1.531-1.503-2.312 1.693-1.102 3.606-1.988 3.122-5.322-3.966-0.16-8.954 0.68-9.923-2.407 2.627 1.256 8.544 2.868 10.711 0.121 0.407-2.92-2.679-2.427-3.78-3.87 1.769 0.266 2.938-0.088 3.833-0.724 0.021-1.783 0.041-3.567 0.061-5.354-4.011-0.235-4.424 3.213-7.692 3.739 0.025-1.52 2.097-0.95 1.562-3.043-4.612 0.071-0.57 4.729-4.641 4.538 1.553-1.539 0.222-2.034-0.731-3.07 3.846-1.01 6.401-5.73 10.759-3.76zm38.573-27.12c-1.832-3.25 1.88-3.837 0.857-8.407-4.128 0.171-6.274 3.013-9.234 4.485 0.178-0.088-0.161-1.468 0.018-1.529-1.929 0.647-3.086 2.43-5.39 3 0.193-0.048-1.11-1.539-1.515-1.55 0.087 0.004-3.184 0.575-4.599 0.714-6.581 0.658-5.222 5.506-11.549 5.992 0.849-2.843-2.854-1.244-2.251-3.853-17.751-2.674-14.907 15.716-18.676 27.342 8.808-3.117 12.834-11.125 24.616-11.204 0.446-2.075 4.962-4.845 6.139-1.459-4.748 2.106-8.634 5.1-11.581 9.053 5.358-1.229 8.382-4.845 13.844-5.966-0.195 1.09-1.274 1.277-1.558 2.277 2.85 1.048 4.417-3.14 5.373-1.47-1.063 0.971-1.382 4.56 0.714 4.599 0.341-1.52 3.232-4.354 3.861-3.018-0.583 1.726-2.938 1.643-3.104 3.792 2.252 1.548 4.882-1.869 6.922-2.982-0.749 2.331-3.751 2.355-3.887 5.312 2.553 0.032 2.641-2.458 5.381-2.232-0.257 1.803-2.672 1.393-2.338 3.801 4.266-0.8 5.857-4.332 7.74-7.567-2.957-0.699-1.29 3.326-4.619 2.246 0.623-1.687 2.7-1.888 3.862-3.021-1.323-1.986-1.043-5.539-2.983-6.919 2.421-1.17 2.004-8.393 1.641-9.932-2.525-0.72-3.366 4.212-4.614 2.242 2.739-1.1 3.962-7.42 6.93-3.74zm2 26.04c-1.696-2.302-1.957-0.745-2.251-3.853-1.249 1.048-2.45 2.143-3.862 3.018-1.033 1.903 2.997 2.432 0.732 3.069-2.394-0.184-5.626 0.453-6.879-0.841 1.164 6.146-6.333 11.78-4.774 16.018 0.903 2.452 10.792 7.792 14.48 5.52 0.397-3.286-2.05-1.004-2.272-2.32 1.549-1.256 3.582-2.015 3.879-4.549-1.823-2.617-3.426 3.64-4.606 1.479 2.132-2.72 6.396-3.263 6.971-7.575-2.394-0.333-4.269 3.819-5.381 2.234 3.028-2.32 6.718-3.964 7.749-8.33-2.352-0.597-1.497 2.082-3.844 1.485 0.195-1.088 1.274-1.275 1.555-2.277-2.389-1.301-3.159 2.811-3.832 0.723 0.909-1.132 3.188-0.866 3.095-3.024-1.367-0.021-4.476 2.01-5.357-0.062 0.725-2.77 2.261-0.44 4.597-0.72zm94.499-32.6c-0.083 2.603 2.218 2.875 3.782 3.866 0.242-1.557 2.088-1.474 2.329-3.034-2.34-0.08-3.95-2.86-6.11-0.84zm2.17 11.5c4.17 0.228 9.061 3.729 12.991 1.679-4.189-2.719-4.045-9.671-8.281-12.341-0.96 4.18-3.75 6.48-4.71 10.66zm-139.96-8.47c0.707-1.34 2.83-1.231 3.095-3.025-2.533-0.96-4.392 2.64-3.095 3.03zm62.772-1.59c0.164 3.119 2.128 4.479 2.208 7.68 4.009-0.291 6.319-2.312 7.714-5.272-3.366-0.604-3.164 2.443-5.395 3-1.086-1.928-1.817-3.026-0.701-5.364-1.442-1.45-1.925-0.11-3.828-0.05zm63.484 3.02c0.512 0.006 1.021 0.012 1.528 0.018 0.006-0.511 0.012-1.021 0.018-1.529-0.507-0.006-1.018-0.012-1.527-0.018-0.01 0.51-0.01 1.02-0.02 1.53zm10.62 8.54c0.979-0.032 1.069-0.97 2.303-0.74 0.683-2.434-0.634-2.913-1.487-3.844 2.914 0.658 2.981-1.596 3.859-3.019-1.752-0.807-2.436-2.662-5.328-2.354-1.44 1.338-0.837 4.022 0.715 4.598-1.277-0.015-2.555-0.029-3.827-0.043 0.132 3.234-3.954 2.147-3.13 6.086-2.893-2.573-3.972 1.391-3.854 2.255-4.004-2.523-8.272 1.323-8.477 5.26-1.133-0.909-0.867-3.188-3.025-3.096-2.024 1.129-2.906 6.336-1.628 8.399 2.125-1.44 4.611-2.508 6.174-4.521 0.99 3.312 4.059 0.228 4.609-1.479 3.914 1.148 7.399-4.803 11.546-5.992 0.906-2.235-3.639-2.884-1.485-3.843 2.02-0.23 0.57 2.95 3.04 2.31zm-122.36-7.51c1.251-2.115-3.279-2.15-3.052-0.797 1.031 0.25 1.448 1.11 3.052 0.8zm60.385 6.81c4.628 0.513 3.937-3.689 3.138-6.854-1.021-0.012-2.04-0.022-3.06-0.034-1.16 1.21 0.61 3.83-0.08 6.88zm-32.107-3.43c0.51 0.006 1.021 0.012 1.532 0.018 0.006-0.511 0.012-1.021 0.017-1.532-0.51-0.006-1.021-0.012-1.53-0.017-0.007 0.51-0.013 1.02-0.019 1.53zm26.787 0.31c-1.781 0.242-3.593 0.455-3.096 3.026 1.944-0.08 2.976-1.09 3.096-3.03zm4.6-0.72c-3.248 0.804-4.464 3.688-6.947 5.276-0.683 2.435 1.178 2.381 1.488 3.844-1.925 0.61-2.453 2.653-3.87 3.783-1.754-1.785 1.445-2.452 0.827-5.35-6.912 0.672-4.637 10.738-11.608 11.35 0.098 7.322-7.064 7.224-6.295 15.234-2.87 3.773-5.301 7.993-6.277 13.706 7.104 1.995 14.125-2.503 19.948-4.368 0.102-5.969-1.559-13.411 2.502-18.338-2.866-1.312-3.524 3.521-4.607 1.478 2.495-0.892 6.128-5.57 1.606-6.867 1.771 0.264 2.939-0.091 3.835-0.724-0.265-3.086 1.462-3.384-0.713-4.601 1.627-0.997 2.259 0.401 4.601-0.715 0.67-4.214 5.022-4.667 5.459-9.122-2.527-0.719-3.367 4.216-4.616 2.247 1.64-2.18 3.89-3.75 4.67-6.83zm-87.323 6.67c3.067 1.299 4.656-4.824 6.962-6.808-3.26 1.31-5.581 3.58-6.962 6.81zm161.34 11.77c1.085-0.986 2.795-4.02 0.052-4.59-1.09 0.99-2.79 4.02-0.05 4.59zm-2.18-9.97c-4.928 1.931-9.636 4.079-10.826 9.826-3.126 1.64-5.292-3.481-5.356-0.062-0.817 3.575 5.75-0.07 6.096 2.367 0.524 2.083-3.602-0.589-3.076 1.495 4.073-0.957 3.355 2.771 6.086 3.129 0.572-3.334-2.172-3.428-2.226-6.146 2.716-0.576 0.971-5.716 4.648-5.304 2.377-0.055 2.156 2.433 5.339 1.59 1.92-3.1-0.7-3.71-0.68-6.9zm5.24 10c1.814 0.565 7.076 2.105 7.661-0.679-1.874-2.5-4.32 0.233-5.323-3.122 2.444-1.931 5.371 1.412 6.147-2.227-1.811-2.115-4.214-0.273-7.634-1.613-1.38 1.43-0.62 5.05-0.86 7.64zm-162.18-5.66c1.005-1.004 1.041-2.834-0.731-3.068-1.005 1.01-1.041 2.84 0.731 3.07zm110.98-1.04c-1.039 1.53-4.955 2.448-3.113 4.56 2.6 0.54 4.88-3.2 3.11-4.56zm3.76 6.17c2.688 2.37 3.561-1.81 6.12 0.069 0.377-2.396 2.789-5.274 1.606-6.87-4.896-0.316-5.802 3.839-9.971 2.186-0.697 1.354-2.158 1.92-1.584 4.572 3.627 1.131 2.979-2.111 4.627-3.009 0.15 1.45-0.89 1.67-0.81 3.05zm-120.88-3.66c1.009 1.104 3.381 2.062 4.581 0.817 0.327-3.27-4.014-3.87-4.581-0.82zm143.12 0.08c-0.67-0.592-2.191 0.446-2.304 0.741-1.12 2.88 3.79 0.6 2.3-0.74zm32.8 8.79c1.593 0.457 2.162 1.922 4.572 1.581 0.009-0.763 0.018-1.528 0.025-2.295-1.35 0.42-4.48-0.98-4.6 0.71zm6.13-0.69c2.006-2.436-2.238-3.37 0.823-5.349-1.241-0.852-5.227-2.893-6.875-0.844 3.782 1.765 0.523 1.77-0.053 4.593 2.14 0.43 3.96 1.16 6.1 1.6zm-19.1-2.51c1.397-1.591-1.007-4.051-3.782-3.869-0.5 3.01 1.67 3.4 3.78 3.87zm32.91-0.4c-1.846-1.724-5.441-1.739-9.165-1.635 0.58 4.05 6.41 3.24 9.16 1.63zm15.28 2.47c1.916-0.522 3.104 3.404 4.581 0.818-0.959-1.344 0.299-4.088-3.008-4.627-0.87 1.77 0.15 2.05-1.57 3.81zm-210.47 0.68c2.066-4.078 1.224 0.007 4.589 0.052-0.992-2.31-2.06-4.542-3.758-6.165-1.1 0.75-2.806 4.8-0.831 6.12zm115.6-3.28c1.206-2.297-3.935-2.061-3.814-0.811 1.77-0.22 2.93 0.15 3.81 0.81zm-118.66 4.01c0.295-1.562 2.61-4.982 0.833-6.113-0.638 1.22-2.953 4.64-0.833 6.11zm184.34 8.21c1.938 2.688 6.204 3.486 9.924 2.407 0.029-4.066-3.624-4.528-4.507-7.702 2.908 1.368 4.718 3.93 6.817 6.199 2.308 2.488 4.859 4.558 6.811 6.965 2.681 3.312 3.414 8.571 7.528 10.798 1.547-2.448-2.074-5.227-1.426-9.199-7.595-7.461-13.092-16.967-23.479-21.692 0.39 5.01-0.33 8.93-1.66 12.21zm-40.54-1.99c0.649-3.465 1.931-6.287 3.164-9.146-1.333 0.041-2.377-0.198-3.052-0.801 0.627 2.619-3.366 8.268-0.156 13.771-0.546 1.504-4.267-0.234-4.605 1.48 2.014 0.047 7.113 2.385 8.441-2.199-2.24-0.07-2.82-1.78-3.79-3.1zm25.27-1.24c2.173 0.598 5.209 2.855 6.869 1.609 1.653-2.18 0.108-7.632 1.645-9.931-2.549-0.028-5.103-0.059-7.651-0.087-0.12 4.4-0.87 3.61-0.87 8.41zm-85.67-4.03c2.905 0.854 5.187-2.884 3.112-4.556-0.136 2.44-2.852 2.24-3.112 4.56zm45.07 7.39c-2.791-1.56-2.687-5.949-5.27-7.713-2.159 1.199 1.035 3.455-0.069 6.12 3.118 0.232 3.748 2.896 7.624 2.386 0.143-3.727 1.785-5.916 4.67-6.836-0.861 1.438-1.015 3.604-1.589 5.338 2.703-0.844 5.213-1.89 6.929-3.749-2.306-1.144-5.371-6.631-8.392-2.39-1.781-0.254-3.277-1.672-3.835 0.724 5.16-1.62-0.9 4.78-0.06 6.12zm31.42-4.23c2.846-0.511 3.271 1.345 6.112 0.836-0.153-2.372-2.094-2.995-3.01-4.624-0.172 0.919-0.852 0.46-1.527-0.019 0.64 2.44-1.22 2.34-1.57 3.8zm18.4-2.09c-0.008 0.768-0.017 1.531-0.024 2.295 1.099 1.195 3.909 0.721 6.112 0.836 1.11-4.01-5.05-3.6-6.09-3.13zm37.46 3.48c0.343-1.682-2.244-4.245-3.035-2.329 1.56 0.24 1.48 2.09 3.04 2.33zm-215.04-1.66c1.741 0.234 2.879-0.149 3.078-1.497-1.123-1.22-3.41-0.89-3.078 1.5zm82.59 5.52c0.475-3.125 4.129-3.003 3.903-6.842-2.713 0.46-6.941 5.38-3.903 6.84zm66.635-4.6c0.423-2.183 1.118 1.248 1.514 1.548 2.4 0.39 3.138-0.921 3.854-2.254-2.01 0.24-7.54-2.23-5.36 0.7zm27.53 1.84c0.518 3.303 4.271 2.224 6.096 2.364 0.188-1.444-0.843-1.697-0.731-3.068-2.04-0.01-4.37-0.33-5.37 0.71zm-63.64 10.76c3.5-1.065 2.139-7.098 5.451-8.354 0.117 0.893 1.201 0.842 2.286 0.788-1.055 0.963-1.225 3.736 0.722 3.836 1.067-0.976 0.795-3.313 0.827-5.348-5.18-3.99-10.28 1.98-9.29 9.07zm50.58-6.31c0.235-0.904 3.115-2.854 0.811-3.818-0.49 1.59-3.96 2.83-0.81 3.82zm-82.694 3.65c2.789-1.273 5.218-2.921 5.434-6.827-3.692 0.36-3.557 4.62-5.434 6.83zm66.624-3.84c-1.957 1.214-2.048 4.319-4.645 4.54 0.546 3.249-1.51 9.045 1.42 9.966 0.812-3.04 1.188-6.526 1.641-9.932 3.109-0.693 5.254-2.372 9.213-2.193 1.716 2.156-0.815 3.771 0.692 6.133-1.614 1.489-5.088 0.525-6.887-0.077-0.005 3.062 5.131 5.037 6.844 3.901-1.878-2.225 3.351-3.769 3.138-6.851-1.64-3.439-4.313-5.871-8.338-6.981 0.69 2.85-2.14 0.92-3.06 1.49zm-156.12-0.23c2.315-0.214 5.94 0.917 6.139-1.463-3.312-0.1-5.047-1.67-6.139 1.46zm142.32 2.37c1.129 0.411 1.918 1.155 3.043 1.566 0.059-2.325 0.503-5.032-2.242-4.618 0.15 1.45-0.88 1.68-0.8 3.05zm-12.36 9.81c2.578 0.4 0.364 5.459 0.696 6.129-2.178-0.427-4.901-2.733-9.147-3.164 0 4.388-4.14 4.54-3.173 9.914-1.897-1.555-6.292-0.704-6.147 2.229 3.963-0.737 4.705 0.04 9.183 0.104 1.711-2.89-1.502-2.924-1.463-6.143 0.836-1.726 2.354-2.755 4.628-3.01 2.156 0.165 0.911 3.648 3.792 3.104-0.212-2.02 1.619-1.952 3.086-2.26 1.098 0.442 1.852 1.213 2.27 2.32-1.723 2.207-1.665 4.512-5.391 3.003-0.335 1.84 1.376 1.679 0.72 3.833 4.072-0.219 4.146-4.531 6.957-6.044 6.685 2.821 11.778-2.293 19.146-1.312 3.611 1.979 6.523 12.113-2.416 10.686 0.407 3.051 5.375 2.479 7.637 1.619-0.222-3.063 1.412-4.231 0.849-7.646 1.446 0.188 1.698-0.845 3.07-0.729-0.208 4.289 2.39 5.606 3.714 9.989 2.332 0.062 3.902-0.65 4.619-2.243-4.518-0.459-3.521-2.511-2.983-6.922-2.35-0.598-1.496 2.085-3.845 1.487-0.23-1.04-1.073-1.476-0.73-3.068-5.354 0.188-6.718-3.523-9.887-5.473-0.468-1.674 2.197-2.405-0.741-2.303-3.554-0.712 0.489 2.528-1.554 2.277-2.408-1.079-4.64 1.844-5.355-0.062 0.892-0.893 0.896-2.691 0.814-4.581-1.859-1.099-4.085-4.536-6.858-2.373-0.027 2.801 4.475 1.172 3.771 4.633 0.011 2.335-0.738 3.889-2.347 4.568-2.039-0.022-4.082-0.047-6.122-0.069-0.725-2.571-3.131-3.499-2.982-6.923 1.283-4.373 8.743-6.523 7.019-11.401-0.382 0.901-0.836 1.729-1.56 2.279 1.043-2.436-3.125-5.603-1.484-3.843 1.03 7.5-4.15 8.65-7.8 11.37zm-116.95-12.03c-2.551-2.36-2.352 2.8 0 0zm-7.688 2.97c-0.056 1.317 0.566 1.969 1.506 2.312 0.016-1.276 0.029-2.551 0.043-3.826-1.021-0.013-2.043-0.023-3.061-0.034-0.239 2.23 0.155 2.64 1.512 1.55zm88.738 3.3c0.118-1.914 1.487-2.378-0.728-3.068-1.061 1.3-2.506 2.98 0.728 3.07zm22.051 12.49c3.317 0.811 3.433-1.653 4.628-3.01-2.047-3.498-2.03-5.224-0.653-9.956-0.979-0.052-1.048-0.992-2.286-0.789-2.67 4.2-2.06 9.85-1.69 13.76zm12.32-6.75c-0.447-2.085-2.071-3.021-4.558-3.113-0.73 3.25 1.8 3.29 4.56 3.11zm17.62-1.32c1.314 0.057 1.967-0.566 2.312-1.507-1.2 0.06-2.65-0.13-2.31 1.51zm-82.702 4.42c-3.816-2.069-7.749-4.025-11.408-6.251-0.442 1.098-1.217 1.854-2.323 2.27-0.858 17.249 31.763 14.416 38.939 8.095 0.192-2.71-3.573-1.554-3.009-4.627 1.586-0.957 3.896-1.177 3.87-3.781-3.473 1.092-7.103 2.025-9.234 4.485 1.13 1.166 4.36 0.28 3.792 3.104-1.433 1.412-4.14 3.17-5.367 0.705-1.076-2.904 2.118-1.445 1.575-3.811-4.779-0.623-10.531 1.602-16.069-0.183-2.327 1.417 2.875 3.577 0.714 4.604-2.279-0.231-4.686 2.086-5.35-0.827 0.367-2.2 3.315-1.77 3.87-3.78zm150.02-2.14c0.005-0.508 0.011-1.019 0.017-1.529-1.38-2.55-3.76 2.26-0.02 1.53zm-42.08-0.47c-3.604-2.535-5.699 0.916-8.449 2.965 0.732 2.312 0.5 5.563 2.989 6.156 0.358-2.473-0.934-6.628 1.607-6.867 4.539-0.988 2.963 4.839 2.22 6.911 5.99-0.24 3.47-7.87 1.63-9.17zm-167.63 1.93c0.05-0.467 0.123-0.904 0.771-0.757-0.074-0.932-0.207-1.815-1.512-1.547 0.109 0.91-0.155 2.18 0.741 2.31zm106.26 10.39c-0.354-3.202 0.484-5.179 1.609-6.87-3.125 0.198-0.39-1.602-0.73-3.068-3.51 0.68-2.8 8.05-0.88 9.94zm107.97-5.67c0.508 0.006 1.019 0.013 1.528 0.018 1.211-1.866-2.573-2.276-2.286-0.788 0.48 0.05 0.91 0.12 0.76 0.77zm-128.59 2.37c2.398 0.393 3.137-0.917 3.853-2.251-1.091-0.195-1.278-1.274-2.28-1.559-0.345 1.46-1.671 1.91-1.573 3.81zm3.034 2.33c2.237 1.596 3.927 3.729 8.383 3.156 1.194-1.102 0.719-3.913 0.835-6.116-3.39-1.52-9.171-1.24-9.219 2.96zm7.379 24.58c4.183 3.295 3.753 15.429 2.073 19.922 0.062-5.357 0.121-10.714 0.183-16.069-1.501-0.246-1.531 1.014-2.315 1.504 0.227-3.245-1.953-4.144-1.442-7.669-5.112 0.554-10.838 0.932-15.295-0.938 0.651-0.881 1.032-2.04 0.81-3.818-1.839 0.443-3.506 1.062-6.133 0.696-1.681-2.896-4.248-4.927-6.807-6.965 5.011-4.421 15.178-3.565 16.962-11.287-8.38 0.286-18.824 3.07-28.33 1.21-0.171 0.857-0.862 1.183-1.546 1.515 0.684 16.988 7.05 28.42 17.192 36.161-3.776-9.675-7.936-18.979-9.603-30.72 1.523 0.008 0.998-2.078 3.078-1.497 0.034 15.418 5.986 28.879 12.611 35.347 1.752 11.909 6.782 20.614 8.047 33 2.906 3.293 7.356 2.423 11.442 3.19 0.13-4.396 8.414-0.802 5.433-6.827-2.843-0.845-1.244 2.857-3.85 2.252 0.002-1.009-1.334-0.713-1.515-1.547 1.104-4.032 3.438-6.805 3.956-11.434-2.895-0.122-1.187 4.462-3.878 4.547 0.793-3.83 2.16-7.079 3.939-9.904-3.062-4.551-0.098-11.828 0.957-16.824-0.21 3.192 1.201 3.626-0.069 6.121 3.604-2.506 3.229-9.081 3.988-14.497 0.979 0.056 1.051 0.993 2.289 0.792 0.482-2.795-2.514-6.071 1.598-6.104 1.354 4.22-2.384 9.808-0.156 13.773 0.729-2.562 1.428-0.362 3.835-0.722 0.44-2.904 1.211-5.471 2.382-7.627 0.761 1.274 3.24 0.867 4.574 1.583 1.437-1.628 0.581-5.602 0.861-8.411-1.905-0.104-2.354-1.458-3.827-0.043-0.414 2.496 3.787 1.666 1.486 3.844-3.093-1.885-2.59 0.481-3.854 2.252 0.157-3.482 0.669-2.994 0.069-6.122-5.161-3.529-10.578 1.838-14.521-1.691 1.636-1.669 2.25 1.006 4.585 0.816 1.324-1.225 1.935-3.18 1.598-6.106-3.796-0.787-3.064 3.062-5.399 3.767-0.322-1.447 1.092-4.6-1.488-3.845-2.591 1.625 0.966 3.527 0.705 5.368-1.9 0.65-4.44 0.64-4.64 3.01zm15.34-2.89c2.503-1.862-0.891-6.696 0.078-6.889 2.295 0.026 4.589 0.054 6.887 0.078 0.022-2.04 0.046-4.082 0.068-6.121-1.452-0.347-1.905-1.673-3.809-1.575-1.445 1.346 0.598 1.952-0.052 4.593-1.446-0.188-1.7 0.844-3.069 0.731-1.477-1.021 1.578-4.034-1.479-4.609-2.248 0.796-2.727 3.403-2.373 6.86 0.898 0.129 2.172-0.105 2.286 0.792-2.279-0.011-1.021 3.599-2.348 4.563 1.44 0.36 1.89 1.68 3.8 1.59zm-40.433-11.94c-0.009 0.767-0.018 1.531-0.025 2.298 2.335 0.58 2.267-1.295 4.602-0.715-0.021 1.358-4.322 2.169-1.576 3.811 5.968 1.322 11.859-1.177 21.429 0.241 1.028-1.271 2.056-2.542 1.589-5.341-5.753-0.931-12.052-1.332-15.252-4.762-2.26 2.84-6.625 3.54-10.771 4.46zm76.543-1.43c-2.631-3.603 2.192-6.351 0.861-8.407-0.766-0.009-1.528-0.018-2.295-0.026-1.02 2.46-1.74 7.94 1.43 8.44zm-63.464-4.54c0.795 1.828 3.543-1.602 4.583 0.816-0.025 1.521-2.1 0.951-1.565 3.044 1.793 0.264 2.859 1.241 5.35 0.826-0.509-2.362-0.519-1.476 0.043-3.826-2.536-1.3-7.603-6.54-8.411-0.86zm49.744 0.56c1.698 2.286 10.302 2.994 9.207-2.19-2.23 1.59-6.68 0.91-9.21 2.19zm45.89 2.05c2.529 1.312 6.253 1.457 9.156 2.399 0.396-2.403-1.057-3.006-1.477-4.606-3.413 0.56-4.581-1.073-7.646-0.854l-0.03 3.06zm-86.5 2.08c3.547 0.273 5.306-1.28 5.411-4.53-3.97-0.7-3.77 2.86-5.41 4.53zm25.28-2.77c1.448-0.323 4.6 1.092 3.842-1.489-1.273-0.015-2.551-0.028-3.824-0.043 0 0.51-0.01 1.02-0.02 1.53zm39.76 3.51c1.57 0.69 2.928-2.489 1.559-2.277-0.09 1.2-1.96 0.57-1.56 2.28zm-60.46 0.08c-0.098 3.123 0.52 5.547 2.991 6.156-0.272-2.861 0.661-4.482 3.112-4.559-0.014 1.276-0.028 2.551-0.043 3.827 1.021 0.013 2.04 0.023 3.061 0.034-0.729-3.072-0.738-6.847-3.74-7.696-0.49 3.36-4.24 1.07-5.38 2.24zm92.4 17.88c-0.294-1.847 1.417-1.646 0.81-3.814-0.894-1.146-2.88-1.226-3.801-2.342 3.838-0.912-1.908-3.88 1.571-3.81 0.341-3.106-3.229-2.391-3.771-4.633 1.896 0.134 3.71 0.186 3.841-1.488-2.02-1.583-6.308-4.039-9.156-2.397-0.6 3.106 2.486 2.614 3.784 3.868-1.021-0.012-2.039-0.021-3.062-0.033-0.012 1.021-0.022 2.04-0.035 3.062 2.373-0.052 4.24 0.395 5.338 1.589-2.345 0.53-2.231-1.346-4.58-0.814-2.087 6.354 5.688 5.832 2.19 9.208 3.15-1.84 4.02 1.07 6.87 1.59zm-0.04 3.83c0.05-3.581-2.461-4.659-5.295-5.417 1.21 2.34 1.73 5.38 5.3 5.42zm-7.6-4.68c1.008 4.562 2.816 8.343 7.549 9.269-0.77-4.8-4.88-6.33-7.55-9.27zm-4.59-0.05c-1.515 4.491 3.953 11.639 8.32 8.511-2.8-2.82-4.16-7.04-8.32-8.51zm-58.74-17.5c-0.77 6.27 5.458 7.249 9.879 6.233-0.066-2.206 0.474-5.006-0.697-6.13-1.73-1.22-7.41-1.28-9.18-0.1zm11.41 7.01c2.136 0.94 5.271 0.9 8.407 0.857 1.538-2.717-0.308-4.087 0.087-7.649-5.41-3.04-12.19 0.54-8.5 6.79zm36.66 6.54c0.58-2.336-1.295-2.267-0.715-4.603-1.949-0.851-3.672 2.285-4.59-0.052 0.006-0.511 0.012-1.019 0.018-1.529 2.349-0.53 2.236 1.347 4.581 0.814 0.188-1.442-0.844-1.697-0.729-3.069-6.871 0.772-10.981-4.512-16.826-0.952 0.071-1.333-0.145-2.384-0.731-3.069-3.157 0.564-3.912-1.222-6.879-0.844-1.453 2.356-1.466 8.688 1.429 9.198-1.066 0.459-0.148 2.944-1.566 3.044 0.178-2.189 0.145-4.174-2.251-3.853-1.493 1.55-0.573 5.01 0.697 6.13 0.325-0.956 1.004-1.552 2.312-1.503-0.052 0.978-0.993 1.048-0.792 2.286 0.593 0.178 1.51 0.039 1.523 0.783 2.347 0.597 1.493-2.085 3.844-1.489-0.562 3.074 3.201 1.918 3.009 4.629-1.353-0.695-1.922-2.159-4.575-1.585-0.018 1.532-0.033 3.061-0.052 4.593-1.263-2.328-3.436-0.234-4.572-1.584 0.01-0.763 0.018-1.528 0.025-2.295 2.169-0.607 1.969 1.1 3.815 0.812 0.012-3.04-2.941-3.181-5.312-3.889-2.964 1.869-0.125 9.677-3.948 10.671 1.948 0.1 1.777 2.868 0.725 3.834 1.319 1.889 4.594 1.859 6.878 0.843 0.771-3.279-3.746-1.386-3.783-3.87 2.794-0.353 4.908 0.271 5.399-3.765 1.603 2.868-0.979 6.899 1.443 7.668 0.632-1.654 0.543-3.991 2.364-6.096 0.752 1.033 2.051 1.527 2.26 3.087-2.142-0.806-3.249-0.905-3.086 2.263 3.57 0.334 3.235 0.832 7.646 0.852 0.196-5.602 4.393-2.306 4.68-7.601-3.784-1.094-5.934-3.787-9.125-5.462 2.214-2.46-1.516-5.547-2.209-7.677 2.036-0.976 0.854-4.041 1.584-4.575 3.339-0.049 4.744-1.217 6.104 1.603-1.72 1.752-2.982-0.295-5.357-0.062-0.497 4.271 3.768 3.884 7.61 3.914 0.472-1.583-0.892-5.04 0.825-5.351-0.621 2.877 0.894 3.669 0.697 6.13 2.75 0.37 4.08 2.1 7.66 1.63zm-37.67 14.88c3.076 2.21-1.769 2.76-1.584 4.575 2.729 2.984 5.29 3.86 6.044 6.953 1.732 7.089-5.246 9.043-10.841 11.357-1.76-4.588-8.78-4.028-9.844-9.294 1.67-4.742 5.524-7.253 8.538-10.619-4.501-4.041-11.608 0.447-15.33 2.121-3.738 7.269-1.154 17.271-1.807 24.473 0.224 1.8 2.348 1.738 3.026 3.095-2.037-0.02-1.976 2.104-3.096 3.026-0.183 3.205 3.729 2.405 2.992 6.156 0.142 5.65-4.416 8.554-5.506 12.947-0.821 3.323 1.298 6.999-0.884 10.702 15.109 0.229 39.409 0.748 53.572-0.156 0.545-6.41 4.979-8.841 6.285-14.473-1.964-0.602-2.63-2.472-2.233-5.382-0.165-2.747 2.33-2.778 2.354-5.328-2.875-13.613-11.748-21.805-13.385-34.594-3.975-1.334-7.56 0.356-12.992-1.677 2.75-4.15-4.61-4.26-5.32-3.89zm26.77 1.07c0.508 0.005 1.019 0.011 1.529 0.017 0.006-0.511 0.012-1.021 0.018-1.532-0.511-0.005-1.021-0.011-1.529-0.017-0.01 0.51-0.01 1.02-0.02 1.53zm-0.64-10.73c-0.892-2.912-0.478-7.103-4.515-6.938 0.48 3.32-0.28 7.85 4.52 6.94zm4.65-5.3c-0.574 2.83 1.271 3.297 0.696 6.13 2.384 0.948 3.764 2.879 7.628 2.382 1.687-2.389 0.615-7.314-2.212-7.677-1.064 0.455-0.148 2.944-1.563 3.044 0.73-3.49-1.58-4-4.56-3.87zm42.8 5.08c-1.125 1.429-1.169 3.963-3.111 4.558-0.111-0.9 0.154-2.172-0.74-2.304-1.658 0.626 0.23 4.879-1.589 5.338 1.156-5.168-1.624-6.485-1.411-10.731-7.271 0.027-1.634 8.997-5.502 12.948-8.08 2.652-11.398-3.32-19.87-2.52-3.004-2.11-6.221-4.01-10.663-4.714 1.563 22.03 26.595 23.965 23.953 47.724 4.259 1.233 11.183 2.455 16.061 0.944 1.453-0.451 1.933-3.424 3.851-2.252 1.343-1.723 1.894-4.255 1.617-7.638-2.949 2.038-4.479 0.959-6.173 4.523 1.934-6.563 1.379-9.964 3.226-14.502-5.292-4.016 2.604-8.734 0.154-13.774-4.187 0.927-0.839 5.676-3.922 8.372-0.26-10.68 6.89-19.53 4.11-25.98zm2.23 5.38c-0.859 3.271-3.595 6.674-3.183 10.677 4.217-3.559 2.867-9.304 4.774-16.018-3.08 0.29-1.14 3.64-1.59 5.34zm-37.34-13.43c0.248 4.449 7.609 5.931 11.416 5.484 0.182-4.608-0.584-5.369 0.104-9.182-1.858-1.716-5.097-2.082-8.39-2.391-0.67 3.98-3.33 2.69-3.13 6.09zm-54.37 2.45c3.553 0.535 4.345-1.748 3.887-5.315-4.42-1.87-4.69 0.77-3.89 5.32zm5.36-0.71c0.935 0.099 1.811 0.248 1.516 1.55 2.612-0.497 2.877-2.452 3.817 0.807 3.354-1.787 3.698-2.388 6.885 0.077 1.194-1.099 0.721-3.909 0.835-6.112-3.511-1.011-3.726 1.35-5.381 2.237-0.309-1.471-0.24-3.298-2.262-3.09-1.787 3.033-1.581-0.313-4.593-0.053-0.91 0.88-0.91 2.68-0.84 4.57zm75.01-0.68c2.938 0.634 2.986-3.632 0.035-3.064-0.01 1.01-0.02 2.04-0.04 3.06zm-110.21 1.05c1.723-0.305 0.068-4.06 1.584-4.575-1.021-0.012-2.042-0.021-3.061-0.033 0.447 1.58-1.296 5.3 1.477 4.61zm2.315-1.51c2.391 0.383 3.423-0.625 3.096-3.026-2.394-0.38-3.423 0.63-3.096 3.03zm6.105 1.6c0.349-1.699 1.803-4.133-0.715-4.603-0.884 1.46-2.995 4.68 0.715 4.6zm4.594 0.05c0.018-1.532 0.035-3.062 0.052-4.593-0.766-0.01-1.529-0.019-2.295-0.026 0.15 3.13-2.006 4.81 2.24 4.62zm36-3.42c-0.4 2.412 1.35 2.719 0.706 5.363 4.072 0.642 4.4-3.405 3.13-6.086-1.77-0.25-2.94 0.1-3.84 0.73zm58.93-0.1c-2.24 4.4 3.64 2.42 0 0zm6.06 6.19c3.946 0.379 2.661-6.924-0.697-6.13 1.23 2.08-1.08 3.92 0.7 6.13zm3.82 0.05c2.328 0.058 5.032 0.502 4.618-2.243-6.209 1.604-1.083-3.377-4.55-3.877-1.53 1.49-0.54 4.36-0.07 6.12zm-145.26 54.99c2.603-4.047 7.182-6.072 8.546-11.386-3.424 0.646-5.146 7.096-7.723 6.035 1.269-2.314 3.879-3.257 4.662-6.068-0.898-0.382-1.726-0.836-2.277-1.556 2.968-4.706 8.316-6.979 9.338-13.671 0.932-0.914 4.534-3.02 2.347-4.565-2.086 3.027-3.33 6.916-6.981 8.341 1.813-4.582 9.056-11.05 6.294-15.234-2.753 3.642-4.935 11.968-8.554 12.147 2.312-5.118 6.326-8.495 7.816-14.453-2.869-1.313-3.526 3.519-4.608 1.479 0.475-0.71 1.812-2.804-0.74-2.303-2.281 2.568-2.851 6.887-6.217 8.347 2.917-3.467 4.626-8.169 7.025-12.164-2.789-2.592-3.408 2.317-4.598 0.712 0.448-1.587 2.214-2.448 0.806-3.815-2.991-0.482-1.988 3.126-3.87 3.78-0.175-3.274 2.381-3.757 1.618-7.633-2.994-0.482-1.991 3.125-3.87 3.782 0.137-2.701 2.23-3.396 2.364-6.095-4.914 1.364-1.737-0.627-2.243-4.62-6.585 5.66-3.852 14.858-4.884 25.967-0.932 9.997-3.462 24.421-5.722 32.078 2.383 3.472 5.797 5.937 12.183 5.494 1.099-3.283 6.202-6.535 5.462-9.122-1.349 1.71-4.418 5.73-6.174 4.49zm103.12-50.11c1.812-2.15-0.575-5.045-0.681-7.663-1.021-0.012-2.043-0.021-3.061-0.034 0.16 3.62 0.98 6.59 3.74 7.69zm-36.7-3.47c-1.253-0.144-1.308 4.698-0.052 4.589 0.094-2.743 5.011-0.551 6.146-2.227 0.44-3.15-5.23-2.83-6.1-2.36zm49.66 7.44c2.689-0.718 0.51-6.776-1.441-7.668 0.7 2.34-1.73 7.74 1.44 7.67zm4.63-3.01c-2.396-0.176-0.04-5.004-3.008-4.624-0.04 2.1 1.12 6.91 3.01 4.62zm-46.7 1.01c2.275 0.947 5.601-0.033 6.156-2.991-3.205 0.608-3.599-1.529-6.104-1.602-1.69 1.58 0.35 2.18-0.06 4.59zm-95.648-1.08c1.692-1.582 1.606-2.858-0.724-3.836 1.292 1.97-0.908 2.67 0.724 3.84zm79.508 7.02c1.479 1.422 4.283-0.166 6.13-0.697 0.008-0.766 0.017-1.528 0.026-2.294-2.13-1.62-5.74 0.43-6.16 2.99zm9.87 7c-5.193-0.928-5.719 2.925-7.713 5.269 1.509 2.311 6.268 1.441 9.931 1.646 0.177-0.593 0.038-1.51 0.782-1.523-0.515-2.251-2.546-2.282 0.044-3.826-4.036-0.562 1.282-1.361 0.043-3.822-0.98-0.057-1.051-0.993-2.289-0.793-1.88 0.98 0.82 2.84-0.79 3.04zm48.04 15.85c-3.286-1.04-0.987 3.632-3.857 3.019 1.153-3.204 3.262-5.436 3.173-9.914-4.686-0.662-2.521 5.68-6.19 6.053 0.837-4.005 3.584-6.751 2.416-10.685-3.99-1.244-0.546 5.115-3.879 4.545-0.005-2.275 2.346-6.093-0.688-6.896-0.271 2.563-0.843 4.813-2.363 6.096-1.436-2.427 2.573-4.784 1.637-9.165-3.535-0.258-1.122 5.565-4.653 5.309-0.03-2.307 2.902-5.526 0.069-6.122-1.522 0.505 0.425 4.562-2.339 3.797 0.102-2.857 0.882-2.17 0.053-4.589-2.033-0.018-4.369-0.339-5.368 0.705 1.007 15.161 12.271 20.293 12.603 36.109 4.811 1.86 9.144 4.181 16.026 4.008-2.203-5.599 3.676-11.688 1.723-16.817-1.252 3.365-2.268 6.968-4.695 9.131 1.24-2.979-1.97-1.604-2.262-3.087 1.013 0.002 0.717-1.331 1.551-1.512-0.115 1.372 0.738 1.799 2.276 1.555-0.484-3.357 4.481-6.653 0.86-8.407-1.45 1.612-1.304 4.858-3.129 6.087-0.273-2.896 2.634-6.541 0.856-8.407-1.546 2.288-1.226 6.485-3.913 7.606-0.396-3.021 3.273-5.89 0.861-8.407-0.31 2.76-2.15 2.74-0.78-0.01zm-39.71-7.34c-0.038-2.986-0.488-5.576-2.991-6.155 0.05 2.97-1.01 7.04 2.99 6.16zm-65.205 13.04c-2.045 5.946-0.191 13.049-4.789 17.546 0.222 1.8 1.175 2.889 0.706 5.367-4.433 8-10.389 11.445-10.965 22.07 2.937 1.388 10.703 1.896 10.739-2.178-0.99 5.006 5.708 2.49 9.147 3.164-0.132-2.396 0.577-5.609-0.688-6.893-1.433-1.374-5.047-0.615-7.645-0.854-0.438 1.355-0.428 3.175-1.572 3.811-0.186-2.847-2.276-3.831-4.541-4.646 6.064-0.372 9.697 0.261 16.836 0.19 0.718-5.975 4.127-9.194 7.792-12.155-2.749-7.233 2.384-15.073 1.022-22.948-0.125-0.729-1.694-2.717-2.251-3.853-2.499-5.114-3.736-10.278-3.646-16.113-0.978-0.052-1.048-0.993-2.286-0.788 1.002 7.44-5.698 12-7.859 18.28zm151.58-5.18c1.44-2.148 0.979-7.673-2.208-7.682-1.25 1.98 1.05 5.7 2.21 7.68zm-95.64-1.84c3.311 0.553 2.102-3.525 2.363-6.096-3.3-0.55-2.09 3.53-2.36 6.1zm97.91 4.16c0.771 0.005 0.905 0.63 1.523 0.782 0.006-0.766 0.63-0.901 0.78-1.521-0.767-0.009-0.902-0.63-1.521-0.783 0 0.77-0.62 0.91-0.78 1.52zm-158.44 2.04c-0.006 0.512-0.012 1.021-0.018 1.532 1.87 1.211 2.28-2.574 0.792-2.289-0.048 0.47-0.124 0.91-0.774 0.76zm162.19 4.89c-0.234-1.787-0.747-3.308-2.251-3.854 0.07 1.95 0.1 3.94 2.25 3.85zm-124.73-1.41c0.511 0.006 1.021 0.012 1.532 0.018 0.868-1.093 0.846-1.858-0.74-2.304 0.02 1.05-0.37 1.67-0.79 2.28zm-1.56 3.05c0.508 0.006 1.019 0.012 1.528 0.018 0.006-0.511 0.012-1.021 0.018-1.528-0.511-0.006-1.021-0.012-1.528-0.019-0.01 0.51-0.01 1.02-0.02 1.53zm111.69 3.55c-3.764 0.797-7.076 2.051-8.477 5.265 2.005-0.191 3.288 0.312 3.034 2.329-0.978 0.031-1.068 0.969-2.304 0.739-2.039-2.717-2.89-4.609-7.619-3.146-0.851 2.849 1.879 2.201 1.48 4.604-0.77-0.009-0.919 0.609-1.541 0.749-3.769 0.018-1.477-3.019-1.469-5.372-3.763 0.997-7.436-0.844-12.233-0.904-1.23 3.65 1.604 4.604-1.617 7.637-0.899-0.132-2.176 0.106-2.286-0.792-0.214-1.769 2.22-0.825 2.32-2.27-1.49-1.536-4.366-0.537-6.121-0.069 0.213 1.787 1.597 3.312-0.811 3.814-0.897-0.381-1.725-0.836-2.276-1.555-0.205-2.015 2.974-0.57 2.329-3.034-3.68-0.758-7.868-3.106-11.46-1.662-0.4 2.411 1.349 2.72 0.706 5.367 4.963 3.888 10.966 2.351 19.104 2.513 0.944-1.357 0.188-4.452 1.59-5.34 2.457 2.521 0.577-3.341 3.854-2.255 2.062 2.102-2.002 1.885-1.584 4.575 11.103 1.934 22.012 1.545 26.096-6.593-1.746 0.194-2.876-0.217-3.044-1.563 1.13-0.66 2.44-1.12 2.33-3.05zm-110.25 4.12c3.092 0.004 3.118 3.006 5.312 3.887 2.75-5.66-3.56-9.51-5.31-3.89zm-13.092 7.5c5.21-1.679 11.836 1.417 16.104-2.88-2.416-0.597-6.018-0.194-3.774-4.632-3.936 1.591-8.678-0.44-12.251 0.628 1.3 0.998 2.992 1.615 3.018 3.857-1.138 0.387-1.94 1.11-3.078 1.496-1.237-1.563-1.604-3.979-3.773-4.636 0.485 2.8 2.854 3.76 3.752 6.16zm-29.905 5.02c-2.271-4.635 1.683-3.48 3.133-6.086-2.043-0.022-4.083-0.046-6.125-0.069-1.063 0.455-0.147 2.944-1.562 3.043-1.746 0.192-2.875-0.219-3.043-1.566 0.082-1.203 1.959-0.574 1.555-2.276-1.422-0.627-2.788-1.312-4.572-1.584-0.144 1.145 0.242 2.828-0.8 3.053-0.898-0.129-2.175 0.109-2.286-0.789-0.787-2.871 1.924-2.162 1.581-4.576-1.447 0.156-1.678-0.881-3.052-0.8-2.01 7.87 6.144 12.11 15.171 11.67zm2.393-8.39c1.667 0.16 2.442-0.597 2.321-2.269-2.053-0.55-1.497 1.56-2.321 2.27zm128.44 10.63c-4.389 0.672-4 6.229-6.225 9.115 2.707 1.221 0.494-2.596 2.324-2.271 0.843 1.949 3.364 2.258 6.096 2.367 0.715-3.226-0.733-4.331-2.238-5.386 1.799-1.827 2.631 0.638 3.811 1.575-0.562 2.35-0.553 1.464-0.044 3.827 3.039-0.249 7.324 0.783 9.19-0.663-0.256-3.782-4.243-3.921-6.823-5.433 1.84 0.332 1.68-1.38 3.832-0.724 1.521 0.786 1.17 3.396 3.792 3.104 0.487-2.855 3.354-3.281 4.653-5.307-4.86 0.222 1.136-3.785 0.078-6.885-3.51 2.85-18.21-3.11-18.44 6.68zm-5.35-0.06c2.964 0.045 4.435-4.188 3.129-6.087-3.39 0.63-3.94 2.96-3.13 6.09zm-86.42-5.56c-5.699-0.803-6.858 1.488-9.957 0.653-1.82 5.36-7.938 6.329-8.563 12.914 1.847-0.294 1.647 1.413 3.818 0.806 2.25-1.208-1.176-3.959 0.817-4.581 2.279 0.042 0.939 3.62 2.243 4.616 3.175-0.17 2.968 1.039 5.355 0.062 0.015-1.273 0.028-2.55 0.043-3.824-0.458-1.067-2.944-0.148-3.043-1.566 4.44-0.557 4.941 2.737 6.061 5.426 3.644 0.63 5.053-1.023 6.156-2.991-1.208-2.25-3.958 1.176-4.581-0.815 0.257-1.803 2.672-1.396 2.338-3.8-1.313-0.317-1.975 1.11-2.295-0.026 1.3-1.5 0.88-4.77 1.6-6.87zm-41.379 4.88c-5.144 1.354-8.639-3.028-12.957-4.737-2.849 4.689-15.035 5.912-10.104 13.659 2.372 0.104 3.666-0.894 5.376-1.469 1.589-3.378-4.455-3.133-2.246-4.618 3.429-0.325 3.804 2.338 3.766 5.401 1.829 0.481 3.479 1.139 6.113 0.832 0.178-0.59 0.039-1.51 0.784-1.521 1.312-2.868-3.52-3.524-1.478-4.61 2.642-0.06 3.538 1.586 3.009 4.628 4.423 1.825 9.164-1.008 9.251-6.018-3.305-0.025-2.864 3.779-6.165 3.757 0.94-2.38 4.25-2.35 4.651-5.3zm115.45 9.73c2.807 0.031 5.61 0.063 8.416 0.095 0.79-4.77-9.39-5.74-8.42-0.09zm8.47-4.5c1.085-3.076-1.341-2.724-2.253-3.853 1.778-1.564 1.685-3.931-0.714-4.599-1.062 0.454-0.147 2.943-1.562 3.043-0.7-4.108-7.919-1.846-11.445-3.189 0.944 4.579-2.729 4.429-2.39 8.391 2.096-0.534 1.522 1.537 3.043 1.565 4.82-2.18 7.79-0.18 15.31-1.35zm-81.08-3.97c0.119-0.901 1.38-1.719 0.025-2.295-0.11 0.9-1.37 1.72-0.02 2.3zm-0.03 3.06c2.209 0.162 4.246-2.537 1.562-3.044-0.41 1.12-1.15 1.91-1.56 3.04zm65.76 4.57c1.491 0.073 5.588 2.68 5.364-0.705-4.28-2.135-6.395 0.289-11.451-2.425-0.68 4.86 3.12 2.98 6.09 3.13zm44.36 2.79c-3.618-1.401-10.117-1.08-12.26 1.395-1.466-4.285-6.3-0.855-10.696-1.653-1.271 2.495 0.142 2.926-0.069 6.121 0.451 1.329 3.631-0.018 3.811 1.576-0.907 0.358-1.744 0.796-2.312 1.503 2.024 2.983 5.712 6.568 8.363 4.688-3.088 3.008 2.774 1.127 2.256 3.853-4.313 0.864-7.391-0.481-13.009-0.146-2.129 2.377 0.444 6.541 3.017 3.858-0.771-0.02-0.946-1.351 0.019-1.529 1.99-0.435 2.749 0.34 2.269 2.321 2.844 0.842 2.488-1.582 3.854-2.252 1.621 5.26 3.404-0.441 6.887 0.077-0.9 1.12-0.909 1.917-0.034 3.062 3.316 0.295 5.573-0.492 6.91-2.218 0.063 1.953 2.545 1.546 4.575 1.58-0.373-1.95-1.271-2.98 1.565-3.043 0.522 1.771-0.404 4.192 3.78 3.87 1.066-0.976 0.797-3.317 0.827-5.348-3.137-1.9-6.287 0.772-9.174-0.87-0.781 1.006-0.755 2.838-2.329 3.035 0.74-4.333-5.333-3.168-7.628-2.382 0.241-1.56 2.088-1.478 2.329-3.034-2.104-1.728-5.08-2.602-5.286-6.186-2.071-0.497-6.082 0.902-6.878-0.84 3.233-0.745 7.104 0.359 8.462-3.732 0.034 2.486 0.339 4.713 1.46 6.14 0.15-3.263 5.863-3.88 8.441-2.199 2.54-1.84 0.29-3.78 0.85-7.65zm-23.11 13.52c0.012-0.77-0.609-0.92-0.745-1.541 0.481-1.053 2.946-0.082 3.077-1.493-1.567-3.47-4.064 2.302-3.801-2.342-1.787-0.021-3.571-0.041-5.354-0.061-0.597 2.351 2.081 1.496 1.485 3.844 1.312 0.316 1.974-1.114 2.295 0.026-1.337 3.388 4.104 5.446 8.376 3.922 0.681-2.434-1.178-2.381-1.488-3.845-2.38-0.61-1.52 2.08-3.87 1.48zm-6.13 0.7c3.18-4.438-8.912-9.95-9.156-2.4 1.841 0.26 3.743-3.297 5.367-0.702-0.5 1.554-3.869 0.167-3.099 3.024-0.002 1.009 1.334 0.713 1.515 1.547 4.236-0.121 4.37-2.293 7.653 0.087 0.11-1.38-0.74-1.81-2.28-1.56zm22.95 1.02c2.809 1.703 6.159-1.668 6.938-4.513-2.122-4.606-11.173-2.825-8.451 2.967 1.997 0.421 2.653-4.41 4.607-1.48 0.34 2.42-3.81 0.23-3.1 3.02zm17.69-8.22c0.028-2.551 0.059-5.104 0.086-7.652-3.571-0.041-7.143-0.081-10.714-0.121-1.93 7.93 3.79 8.39 10.62 7.77zm-168.28-8.02c-2.507-0.813-4.675 0.899-9.183-0.104-1.762 0.774 0.304 5.47-1.598 6.104-0.068-2.206 0.474-5.006-0.697-6.13-2.55-0.029-5.1-0.059-7.652-0.087-1.374 1.432-0.614 5.047-0.85 7.642 8.42-0.036 12.241 0.008 20.659 0.233-0.178-2.59 0.662-6.19-0.679-7.65zm33.671 0.38c-1.281 2.515-0.839 5.839 0.679 7.659 2.806 0.031 5.611 0.062 8.417 0.095 0.145-1.141-0.242-2.827 0.801-3.052-0.435 4.561 8.977 3.757 10.693 1.653-0.222-1.801-1.176-2.89-0.703-5.364-6.29-2.15-11.09 0.08-19.886-1zm21.346 7.13c3.031 0.766 6.336 0.672 10.714 0.121-0.129-2.396 0.581-5.614-0.688-6.896-6.64-0.64-11.67-2.17-10.02 6.78zm43.69-6.4c-1.019-0.012-2.039-0.022-3.062-0.034-1.942 1.42 1.562 3.994-1.581 4.572-2.004 0.194-3.287-0.314-3.033-2.329 1.202-0.06 2.651 0.132 2.312-1.504-0.077-1.691-3.24-0.363-4.58-0.817-1.369 2.601-0.471 5.476 0.676 7.659 5.73-0.67 13.91-0.33 9.26-7.55zm2.22 6.92c2.806 0.03 5.611 0.062 8.417 0.095 1.072-0.969 0.507-3.609 1.584-4.575 1.311 2.599 5.915-2.412 6.104 1.602-1.363 2.655-5.297-1.802-5.377 1.469 2.204 1.896 5.07 1.521 9.174 0.87-0.129-2.396 0.58-5.612-0.687-6.897-2.689 0.896-5.209-0.604-7.652-0.086-3.399 0.722-1.074 0.561-4.59-0.052-2.69-0.47-4.896 0.412-7.661 0.68-0.54 3.08 0.7 4.38 0.7 6.91zm21.51-6.65c-0.621 2.876 0.895 3.669 0.697 6.13 3.061 0.035 6.121 0.069 9.182 0.104-0.128-2.396 0.581-5.612-0.688-6.897-3.04 0.26-7.33-0.78-9.19 0.67zm-160.71-1.05c0.308 2.631-0.351 4.284-0.832 6.112 1.433 1.374 5.047 0.614 7.642 0.85-0.492-3.082 0.783-4.356 0.844-6.876-1.721-1.53-4.285 0.77-7.654-0.08zm9.107 6.99c2.805 0.03 5.61 0.062 8.417 0.095 0.573-3.335-1.253-4.324-0.68-7.658-6.657-1.72-10.283 2.25-7.737 7.56zm52.041-0.18c1.833 1.487 6.144 0.553 9.173 0.866-0.176-2.599 0.665-6.196-0.676-7.658-7.645-1.89-10.669 2.81-8.497 6.79zm45.138 1.28c3.497-0.035 7.756 0.71 9.2-1.425 0.479-2.991-0.607-4.451-1.461-6.14-7.38-1.93-11.26 2.74-7.74 7.56zm10.79-6.77c0.4 3.482 5.312 0.883 6.096 2.363-1.048 4.36-5.191 0.156-6.903 1.451-0.276 4.054 5.991 1.711 9.155 2.401 0.638-3.146-1.129-3.942-0.688-6.896-2.96-0.17-5.65-0.08-7.67 0.69zm78.72 9.31c1.505 1.61 3.27 0.062 3.844-1.489-1.5-1.61-3.26-0.06-3.84 1.49zm-1.6 6.1c2.03 0.01 4.501 0.474 4.609-1.479-1.15-1.18-5.23-1.42-4.61 1.48zm17.6 0.2c3.646 0.633 4.938-1.14 8.426-0.671 0.104-3.505 4.252-2.876 3.903-6.844-3.002-1.678-9.24-0.938-11.484 0.637-3.408-2.87-12.993-1.593-14.584 3.661 0.946 3.452 7.243 4.137 9.931 1.646 1.131-3.375-2.565-2.031-2.243-4.618 1.42 1.683 3.518 2.163 4.563 2.347-2.79 1.57 1.49 2.47 1.48 3.83zm-83.39-2.47c1.075 0.211 0.854 1.685 1.505 2.312 1.784 0.021 3.568 0.04 5.356 0.062 1.58-0.708 0.691-3.937 3.104-3.793 1.096 0.947 1.128 2.935 2.252 3.854 2.298 0.025 4.592 0.053 6.888 0.077-0.233-3.556-2.55-5.077-5.285-6.182-1.034 1.903 2.996 2.429 0.729 3.069-1.013-0.777-2.296-1.287-3.037-2.329 0.966-0.305 1.576-0.971 1.558-2.28-2.305-1.079-2.737 0.333-6.12-0.069-1.03 1.902 2.999 2.433 0.729 3.069-1.82-4.5-6.55-0.66-7.69 2.21zm16.88-3.63c1.072 0.212 0.854 1.688 1.504 2.312 2.53-1.026 6.812-0.256 7.688-2.975-1.72-2.48-7.82-1.72-9.19 0.66zm-136.2-1.54c-0.311 3.834 1.841 5.263 4.521 6.174 1.562-0.21 1.523-2.053 3.087-2.26-0.251 1.03-1.106 1.446-0.801 3.052 5.534-0.114 9.322-1.087 13.767 0.919 2.344-1.322-2.062-2.394 0.034-3.062 4.495 4.875 6.749-3.905 10.009-5.241-5.081-3.411-11.87 6.279-13.792 1.376 1.129 1.224 4.35 1.167 3.844-1.488-4.871 0.296-7.504-0.599-9.981 2.947 0.431 0.695 3.125 2.854 1.498 3.079-4.043-1.81-7.151-9.31-12.186-5.5zm39.712 7.33c0.512 0.005 1.021 0.011 1.532 0.017 0.005-0.769 0.629-0.903 0.78-1.521-0.978-0.056-1.047-0.993-2.286-0.792-0.009 0.76-0.017 1.53-0.026 2.29zm-3.732-8.46c-2.138 1.168-4.48 2.125-6.165 3.757 0.129 2.397 1.938 3.151 3.009 4.627 5.066 0.796 5.941-2.698 8.471-4.497 0.021 1.563 2.4 4.468 6.069 4.661 1.546-1.256 3.579-2.015 3.875-4.549-1.253-1.55-2.012-3.579-4.546-3.878-1.249 1.047-2.447 2.143-3.861 3.017 0.251-1.031 1.106-1.448 0.801-3.052-1.276-0.015-2.55-0.028-3.826-0.043-1.887 0.996 0.809 2.857-0.802 3.052-0.674-1.36-1.681-2.39-3.025-3.1zm25.191 5.64c-2.307-2.013-5.312-3.044-5.295-5.419-2.449 0.078-5.848-0.82-5.381 2.237 0.958 1.994 4.581-0.54 4.581 0.813-4.882 2.67 5.709 8.72 6.095 2.37zm15.364-4.42c-5.17-1.52-11.991 1.553-13.844 5.966 1.09 1.854 6.401 2.27 8.406 0.861 1.253-2.574-3.21-3.304-0.714-4.602-0.155 1.668 0.602 2.44 2.272 2.323 1.54-1.25 3.58-2.01 3.88-4.55zm1.46 5.38c-1.784-0.257-3.144-1.533-4.592-0.053 0.026 3.423 5.504 2.354 7.636 1.619-0.545-2.747-1.713-4.885-4.528-5.407-0.6 2.35 2.62 0.96 1.48 3.84zm8.48-5.26c-1.434-1.373-5.048-0.614-7.643-0.853-0.32 6.45 6.85 6.37 7.64 0.85zm-19.902 0.54c-0.069-3.236-6.113-1.084-7.646-0.853-0.389 2.398 2.035 2.043 2.251 3.854 2.518-0.27 3.403-2.2 5.395-3zm27.522 2.6c0.026-1.52 2.101-0.95 1.566-3.043-3.412-0.933-4.738-0.99-6.896 0.688-0.4 4.515 6.399 1.284 3.754 6.165 2.135 0.901 3.969 0.923 6.125 0.068 1.068-1.731-1.941-2.898 0.034-3.061 0.394 3.573 3.6 0.013 3.789 3.104 2.315-0.21 5.943 0.917 6.14-1.463-1.096-0.438-1.853-1.214-2.27-2.319-1.946-0.849-2.715 3.264-3.836 0.723 1.95-0.071 2.98-1.081 3.096-3.026-1.18-1.972-7.031-2.226-9.174-0.868-0.188 1.444 0.844 1.695 0.731 3.067-0.901 0.108-2.172-0.155-2.304 0.741 0.59 0.177 1.51 0.038 1.52 0.782-1.31 0.04-1.95-0.6-2.27-1.55zm13.01 0.15c2.163 2.791 5.35-2.776 6.111 0.836-1.341 0.691-4.105-0.074-3.853 2.252 3.364 1.818 6.739-0.077 7.688-2.975-1.54-2.84-9.44-6.9-9.95-0.12zm8.44-2.2c1.558 0.242 1.479 2.088 3.034 2.329 0.098-1.967 3.001-1.059 3.096-3.025-1.11-1.04-6.04-1.63-6.13 0.7zm-116.3-2.08c-2.55-0.029-5.103-0.058-7.653-0.087-0.631 5.682 3.481 0.547 4.567 2.347-1.417 3.82-2.803 2.204-6.139 1.463-0.468 1.587-1.639 2.453-2.342 3.801 6.212 2.56 10.679-2.18 11.567-7.52zm-2.384 7.63c0.969 1.059 3.603 1.087 4.593 0.052-0.119-2.155-1.292-3.276-3.792-3.104-0.252 1.03-1.107 1.44-0.801 3.05zm-6.798-7.73c-2.388-0.375-2.467 1.606-2.342 3.801 0.767 0.009 1.532 0.018 2.299 0.025 0.992-0.99 1.012-2.81 0.043-3.82zm21.425 0.24c-1.277-0.014-2.55-0.027-3.827-0.043-0.283 3.58 3.517 2.08 3.827 0.04zm205.78 7.68c1.896 0.134 3.713 0.186 3.844-1.485-1.492-1.314-1.712-3.878-5.32-3.122-0.39 2.4 2.33 1.75 1.48 4.6zm-75.77 0.68c2.254-0.986 3.946 0.533 7.654 0.086 0.78-7.15-9.79-4.2-7.65-0.09zm75.01-0.69c0.376-2.389-1.609-2.463-3.801-2.338-0.09 2.3 2.2 3.91 3.8 2.34zm-233.42-0.34c1.772 0.265 2.938-0.091 3.835-0.723 0.238-1.999-0.243-3.294-2.263-3.086-0.343 1.46-1.669 1.91-1.572 3.81zm99.488 0.36c2.942 0.662 7.161 1.482 7.676-2.209-3.26 1.25-6.31-1.47-7.68 2.21zm-55.864-0.63c0.88 0.651 2.041 1.032 3.818 0.809 0.77-2.81-3.723-3.09-3.818-0.81zm23.724 0.27c1.355-0.159 3.82 0.815 3.078-1.498-1.745-0.23-2.88 0.15-3.078 1.5zm146.09 7.01c3.284 1.036 2.444-2.144 3.862-3.018 3.677 0.365 0.355 3.188 3.017 3.861 3.863-1.745 4.938-2.006 9.226-3.725 1.258 1.534-0.079 0.976-0.034 3.062 1.528 0.018 3.062 0.035 4.59 0.052 0.018-2.033 0.34-4.364-0.702-5.363-8.772 0.535-11.064 0.905-19.121-0.981-1.21 1.09-0.73 3.9-0.85 6.11zm22.2-0.52c1.021 0.012 2.04 0.023 3.061 0.035-1.779-1.823 1.272-4.841-1.479-4.607-1.34 0.69-1.71 2.37-1.58 4.57zm-88.79 1.29c1.325-0.448-0.019-3.631 1.571-3.81 3.161-0.567 1.397 3.682 4.56 3.113 0.343-1.454 1.669-1.905 1.572-3.811-2.638-2.253-4.742-0.365-8.399-1.624-1.82 1.15-1.48 4.95 0.7 6.13zm9.96-0.65c-0.707-3.046 2.24-2.353 3.857-3.02-0.012 1.021-0.022 2.04-0.035 3.062 3.396 0.377 5.7-0.362 5.402-3.768-0.596-0.175-0.884-0.65-0.748-1.538-3.062-0.034-6.122-0.067-9.184-0.104-1.05 1.03-1.52 5.33 0.71 5.37zm10-4.48c-0.016 1.276-0.029 2.553-0.043 3.826 1.344-0.196 3.796 2.198 4.592 0.052-2.771-0.726-0.441-2.262-0.714-4.599-1.78-0.26-2.95 0.09-3.84 0.72zm5.36 0.06c-0.038 1.804 1.291 2.27 0.714 4.603 1.273 0.014 2.552 0.028 3.824 0.043 1.066-0.976 0.798-3.317 0.826-5.348-2.03-0.01-4.37-0.33-5.36 0.71zm-134.7 0.01c-0.059 2.325-0.503 5.029 2.242 4.614 2.319 0.053 0.784-3.84 3.104-3.787 1.68 0.629 3.04 1.568 3.017 3.856 3.612-0.544 2.311-2.091 3.113-4.555-4.013-1.42-7.937-1.68-11.476-0.13zm12.199 3.97c2.607 1.275 9.866 1.576 11.488-0.636-0.175-6.45-12.241-6.78-11.488 0.64zm13.061-4.45c-1.641 0.461-0.77 4.703-0.062 5.355 4.374 0.091 9.124 0.562 10.74-2.174 1.017 1.527 2.09 3.002 5.33 2.354 0.7-2.448-2.511-1.074-2.26-3.086 2.5-2.526 5.729-0.378 3.792 3.104 1.959-0.316 3.531-1.03 4.616-2.242-1.133-0.152-0.681-1.857-0.731-3.069-3.778-0.521-9.107-2.046-10.728 1.411-2.464-3-8.101-1.76-10.697-1.64zm32.899 1.14c-0.645 0.01-2.237-1.479-3.044-1.564-2.802-0.301-4.604 0.735-6.896 0.688-0.397 2.91 0.27 4.78 2.233 5.382 0.176-0.594 0.652-0.88 1.541-0.745 1.069-1.735-1.941-2.899 0.035-3.062 0.762 0.009 1.528 0.019 2.294 0.026-0.263 1.769 0.091 2.938 0.724 3.831 3.189 0.688 3.053-2.035 4.624-3.008-0.383 2.394 0.628 3.423 3.025 3.095 2.053-1.754-2.007-2.068 0.043-3.823 1.107 0.43 3.967-0.853 3.818 0.808-0.344 1.197-2.414 0.627-1.563 3.043 2.461 0.194 3.25-1.315 6.13-0.693 0.019-1.532 0.035-3.062 0.053-4.593-5.13-2.86-11.14 0.57-13.02 0.6zm26.75 2.59c2.099-0.896 5.479-2.868 5.343 1.593 2.169-0.607 1.969 1.1 3.817 0.806 1.064-0.454 0.146-2.942 1.563-3.043 0.889 0.142 0.817 1.222 0.739 2.308 2.57-0.726 3.494-3.135 6.923-2.982 0.44 1.365-2.281 3.15-0.043 3.823 0.214-1.586 3.36-0.171 3.84-1.485 0.584-2.335-1.295-2.267-0.711-4.602-4.25 0.298-10.467-1.414-11.506 2.168 0.16-4.53-13.86-2.99-9.96 1.41zm-1.48-3.84c-3.734 0.309-8.956-0.902-11.489 0.636-0.696 3.458 0.793 4.775 3.003 5.39 0.833-1.467 0.575-4.055 3.858-3.018 0.048 2.09-1.291 1.525-0.034 3.061 2.741 0.483 3.711-0.845 5.375-1.468 0.58-2.33-1.3-2.26-0.71-4.6zm-124.04 5.49c2.088-1.478-2.645-3.854 0.817-4.581 3.075-0.077 2.002 1.985 1.486 3.841 1.276 0.016 2.55 0.028 3.826 0.044 0.014-2.03 0.339-4.364-0.706-5.363-3.134 0.714-3.09-0.119-6.887-0.078-1.403 1.59-1.335 6.34 1.464 6.14zm7.65 0.09c2.311-0.993 5.863-0.712 9.191-0.663 0.473-2.477-0.48-3.563-0.703-5.362-2.806-0.032-5.614-0.063-8.419-0.097-0.429 1.38-0.467 4.72-0.069 6.12zm235.74-1.93c1.035 0.251 1.452 1.104 3.052 0.798 0.009-0.763 0.019-1.528 0.026-2.295-1.43 0.08-2.56 0.47-3.08 1.49z"/>
<path d="m136.56 45.746c1.582-2.225 3.993 1.083 5.338 1.593-0.61 1.272-3.69-1.381-5.34-1.593z"/>
<path d="m129.24 83.929c1.476-0.525-0.523 3.304-0.811 3.818-1.43 2.568-0.37-1.472 0.81-3.818z"/>
<path d="m146.05 86.417c1.739 6.179-5.664 7.668-8.471 4.495-1.51-5.951 5.61-7.729 8.47-4.495zm-6.88-0.078c-1.095 3.083 1.633 2.438 1.477 4.606 2.191 0.175 4.175 0.145 3.854-2.252-1.359-0.473-3.205 2.206-3.827-0.043-1.158-2.734 2.604-0.435 2.32-2.269-0.99-0.994-2.81-1.015-3.82-0.042z"/>
<path d="m79.105 118.57c-0.567 0.71-1.4 1.146-2.312 1.507-1.917-0.36 1.292-1.64 2.312-1.51z"/>
<path d="m62.247 120.67c0.866 0.156 0.415 0.772-0.01 0.766-0.095 2.089 1.257 1.557-0.034 3.062-0.772-0.504-0.771-1.77-2.28-1.556-0.213-1.77 2.221-0.82 2.324-2.27z"/>
<path d="m187.69 126.68c2.807-0.473 2.918 1.69 5.342 1.593-0.17 0.84-5.69 0.58-5.34-1.59z"/>
<path d="m66.525 148.27c1.753 0.624-1.347 2.66-1.571 3.811-1.753-0.62 1.347-2.66 1.571-3.81z"/>
<path d="m32.581 172.38c1.521-1.439-2.607 3.084-4.627 3.009 1.025-1.53 2.542-2.56 4.627-3.01z"/>
<path d="m89.962 173.79c0.948-0.618-2.063 2.353-3.095 3.025-0.731 0.47 0.677-1.46 3.095-3.03z"/>
<path d="m67.036 238.58c2.51-3.55-4.025 5.7 0 0z"/>
<path d="m72.34 243.23c-1.358 2.226-2.46 4.709-3.904 6.845-0.949 1.22 1.314-6.63 3.904-6.85z"/>
<metadata><rdf:RDF><cc:Work><dc:format>image/svg+xml</dc:format><dc:type rdf:resource="http://purl.org/dc/dcmitype/StillImage"/><cc:license rdf:resource="http://creativecommons.org/licenses/publicdomain/"/><dc:publisher><cc:Agent rdf:about="http://openclipart.org/"><dc:title>Openclipart</dc:title></cc:Agent></dc:publisher><dc:title>Indra, king of heaven</dc:title><dc:date>2008-12-24T01:09:08</dc:date><dc:description>Harmsworth's UNIVERSAL ENCYCLOPEDIA Written by the Leading Authorities in Every Branch of Knowledge and edited by J. A. Hammerton 1900</dc:description><dc:source>http://openclipart.org/detail/20820/indra-king-of-heaven-by-johnny_automatic</dc:source><dc:creator><cc:Agent><dc:title>johnny_automatic</dc:title></cc:Agent></dc:creator><dc:subject><rdf:Bag><rdf:li>clip art</rdf:li><rdf:li>clipart</rdf:li><rdf:li>externalsource</rdf:li><rdf:li>god</rdf:li><rdf:li>hindu</rdf:li><rdf:li>image</rdf:li><rdf:li>media</rdf:li><rdf:li>mythology</rdf:li><rdf:li>png</rdf:li><rdf:li>public domain</rdf:li><rdf:li>religion</rdf:li><rdf:li>svg</rdf:li></rdf:Bag></dc:subject></cc:Work><cc:License rdf:about="http://creativecommons.org/licenses/publicdomain/"><cc:permits rdf:resource="http://creativecommons.org/ns#Reproduction"/><cc:permits rdf:resource="http://creativecommons.org/ns#Distribution"/><cc:permits rdf:resource="http://creativecommons.org/ns#DerivativeWorks"/></cc:License></rdf:RDF></metadata></svg>
